<?xml version="1.0" encoding="UTF-8" standalone="no"?>
<svg
   xmlns:dc="http://purl.org/dc/elements/1.1/"
   xmlns:cc="http://creativecommons.org/ns#"
   xmlns:rdf="http://www.w3.org/1999/02/22-rdf-syntax-ns#"
   xmlns:svg="http://www.w3.org/2000/svg"
   xmlns="http://www.w3.org/2000/svg"
   xmlns:sodipodi="http://sodipodi.sourceforge.net/DTD/sodipodi-0.dtd"
   xmlns:inkscape="http://www.inkscape.org/namespaces/inkscape"
   style="fill-opacity:1; color-rendering:auto; color-interpolation:auto; text-rendering:auto; stroke:black; stroke-linecap:square; stroke-miterlimit:10; shape-rendering:auto; stroke-opacity:1; fill:black; stroke-dasharray:none; font-weight:normal; stroke-width:1; font-family:'Dialog'; font-style:normal; stroke-linejoin:miter; font-size:12; stroke-dashoffset:0; image-rendering:auto;"
   width="1108"
   height="729"
   id="svg2"
   version="1.1"
   inkscape:version="0.91 r13725"
   sodipodi:docname="externalappmanager.svg">
  <metadata
     id="metadata199">
    <rdf:RDF>
      <cc:Work
         rdf:about="">
        <dc:format>image/svg+xml</dc:format>
        <dc:type
           rdf:resource="http://purl.org/dc/dcmitype/StillImage" />
      </cc:Work>
    </rdf:RDF>
  </metadata>
  <sodipodi:namedview
     pagecolor="#ffffff"
     bordercolor="#666666"
     borderopacity="1"
     objecttolerance="10"
     gridtolerance="10"
     guidetolerance="10"
     inkscape:pageopacity="0"
     inkscape:pageshadow="2"
     inkscape:window-width="1366"
     inkscape:window-height="705"
     id="namedview197"
     showgrid="false"
     inkscape:zoom="0.45782497"
     inkscape:cx="400.14656"
     inkscape:cy="328.89947"
     inkscape:window-x="-8"
     inkscape:window-y="-8"
     inkscape:window-maximized="1"
     inkscape:current-layer="svg2" />
  <!--Generated by the Batik Graphics2D SVG Generator-->
  <defs
     id="genericDefs" />
  <g
     id="g5">
    <defs
       id="defs1">
      <clipPath
         clipPathUnits="userSpaceOnUse"
         id="clipPath1">
        <path
           d="M0 0 L1108 0 L1108 729 L0 729 L0 0 Z"
           id="path9" />
      </clipPath>
      <clipPath
         clipPathUnits="userSpaceOnUse"
         id="clipPath2">
        <path
           d="M273.3157 89.0907 L1104.3157 89.0907 L1104.3157 635.8407 L273.3157 635.8407 L273.3157 89.0907 Z"
           id="path12" />
      </clipPath>
      <clipPath
         clipPathUnits="userSpaceOnUse"
         id="clipPath3">
        <path
           d="M-20 -28 L811 -28 L811 518.75 L-20 518.75 L-20 -28 Z"
           id="path15" />
      </clipPath>
      <clipPath
         clipPathUnits="userSpaceOnUse"
         id="clipPath4">
        <path
           d="M-76.9286 -209.8957 L754.0714 -209.8957 L754.0714 336.8543 L-76.9286 336.8543 L-76.9286 -209.8957 Z"
           id="path18" />
      </clipPath>
      <clipPath
         clipPathUnits="userSpaceOnUse"
         id="clipPath5">
        <path
           d="M-562.7426 -71.8557 L268.2574 -71.8557 L268.2574 474.8943 L-562.7426 474.8943 L-562.7426 -71.8557 Z"
           id="path21" />
      </clipPath>
      <clipPath
         clipPathUnits="userSpaceOnUse"
         id="clipPath6">
        <path
           d="M-145.3703 -477.8073 L685.6298 -477.8073 L685.6298 68.9426 L-145.3703 68.9426 L-145.3703 -477.8073 Z"
           id="path24" />
      </clipPath>
      <clipPath
         clipPathUnits="userSpaceOnUse"
         id="clipPath7">
        <path
           d="M-261.5624 -210.1731 L569.4376 -210.1731 L569.4376 336.5769 L-261.5624 336.5769 L-261.5624 -210.1731 Z"
           id="path27" />
      </clipPath>
      <clipPath
         clipPathUnits="userSpaceOnUse"
         id="clipPath8">
        <path
           d="M-604.4045 -477.5917 L226.5955 -477.5917 L226.5955 69.1583 L-604.4045 69.1583 L-604.4045 -477.5917 Z"
           id="path30" />
      </clipPath>
      <clipPath
         clipPathUnits="userSpaceOnUse"
         id="clipPath9">
        <path
           d="M-390.8804 -477.3617 L440.1196 -477.3617 L440.1196 69.3883 L-390.8804 69.3883 L-390.8804 -477.3617 Z"
           id="path33" />
      </clipPath>
    </defs>
    <g
       style="fill:white; stroke:white;"
       id="g35">
      <rect
         x="0"
         y="0"
         width="1108"
         style="clip-path:url(#clipPath1); stroke:none;"
         height="729"
         id="rect37"
         clip-path="url(#clipPath1)" />
    </g>
    <g
       style="text-rendering:geometricPrecision; shape-rendering:crispEdges;"
       transform="scale(1.3333,1.3333) translate(-273.3157,-89.0907)"
       id="g39">
      <rect
         x="283.3157"
         y="99.0907"
         width="811.0474"
         style="fill:none; clip-path:url(#clipPath2);"
         height="526.9949"
         id="rect41"
         clip-path="url(#clipPath2)" />
      <line
         x1="333.3157"
         x2="333.3157"
         y1="100.0907"
         style="clip-path:url(#clipPath2); fill:none; text-rendering:optimizeLegibility; shape-rendering:auto;"
         y2="114.1845"
         id="line43"
         clip-path="url(#clipPath2)" />
      <line
         x1="333.3157"
         x2="323.3157"
         y1="114.1845"
         style="clip-path:url(#clipPath2); fill:none; text-rendering:optimizeLegibility; shape-rendering:auto;"
         y2="124.1845"
         id="line45"
         clip-path="url(#clipPath2)" />
      <line
         x1="323.3157"
         x2="283.3157"
         y1="124.1845"
         style="clip-path:url(#clipPath2); fill:none; text-rendering:optimizeLegibility; shape-rendering:auto;"
         y2="124.1845"
         id="line47"
         clip-path="url(#clipPath2)" />
    </g>
    <g
       style="text-rendering:optimizeLegibility; font-weight:bold; font-family:sans-serif;"
       transform="matrix(1.3333,0,0,1.3333,-364.421,-118.7876) translate(293.3157,117.0907)"
       id="g49">
      <path
         d="M6.2812 -4.3906 L4.6719 -4.0938 Q4.5781 -4.5781 4.2891 -4.8203 Q4 -5.0625 3.5469 -5.0625 Q2.9219 -5.0625 2.5547 -4.6406 Q2.1875 -4.2188 2.1875 -3.2188 Q2.1875 -2.1094 2.5625 -1.6562 Q2.9375 -1.2031 3.5625 -1.2031 Q4.0312 -1.2031 4.3281 -1.4688 Q4.625 -1.7344 4.75 -2.3906 L6.375 -2.1094 Q6.125 -1 5.4062 -0.4297 Q4.6875 0.1406 3.4844 0.1406 Q2.125 0.1406 1.3125 -0.7188 Q0.5 -1.5781 0.5 -3.1094 Q0.5 -4.6406 1.3125 -5.5 Q2.125 -6.3594 3.5156 -6.3594 Q4.6562 -6.3594 5.3281 -5.875 Q6 -5.3906 6.2812 -4.3906 ZM7.4082 -6.2188 L8.9238 -6.2188 L8.9238 -5.375 Q9.752 -6.3594 10.877 -6.3594 Q11.4707 -6.3594 11.9082 -6.1172 Q12.3457 -5.875 12.627 -5.375 Q13.0332 -5.875 13.5098 -6.1172 Q13.9863 -6.3594 14.5332 -6.3594 Q15.2051 -6.3594 15.6816 -6.0859 Q16.1582 -5.8125 16.3926 -5.2656 Q16.5645 -4.875 16.5645 -3.9844 L16.5645 0 L14.9238 0 L14.9238 -3.5625 Q14.9238 -4.4844 14.752 -4.75 Q14.5176 -5.1094 14.0488 -5.1094 Q13.7051 -5.1094 13.4004 -4.8984 Q13.0957 -4.6875 12.9551 -4.2812 Q12.8145 -3.875 12.8145 -2.9844 L12.8145 0 L11.1738 0 L11.1738 -3.4062 Q11.1738 -4.3125 11.0879 -4.5781 Q11.002 -4.8438 10.8145 -4.9766 Q10.627 -5.1094 10.3145 -5.1094 Q9.9395 -5.1094 9.6348 -4.8984 Q9.3301 -4.6875 9.1973 -4.3047 Q9.0645 -3.9219 9.0645 -3.0312 L9.0645 0 L7.4082 0 L7.4082 -6.2188 ZM18.1562 -6.2188 L19.6875 -6.2188 L19.6875 -5.3125 Q20 -5.7812 20.5078 -6.0703 Q21.0156 -6.3594 21.6406 -6.3594 Q22.7188 -6.3594 23.4766 -5.5156 Q24.2344 -4.6719 24.2344 -3.1406 Q24.2344 -1.5938 23.4688 -0.7266 Q22.7031 0.1406 21.625 0.1406 Q21.1094 0.1406 20.6875 -0.0625 Q20.2656 -0.2656 19.8125 -0.7656 L19.8125 2.375 L18.1562 2.375 L18.1562 -6.2188 ZM19.7812 -3.2188 Q19.7812 -2.1719 20.2031 -1.6719 Q20.625 -1.1719 21.2188 -1.1719 Q21.7969 -1.1719 22.1719 -1.6328 Q22.5469 -2.0938 22.5469 -3.1406 Q22.5469 -4.1094 22.1562 -4.5859 Q21.7656 -5.0625 21.1875 -5.0625 Q20.5781 -5.0625 20.1797 -4.5938 Q19.7812 -4.125 19.7812 -3.2188 Z"
         style="stroke:none; clip-path:url(#clipPath3);"
         id="path51"
         clip-path="url(#clipPath3)" />
    </g>
    <g
       transform="matrix(1.3333,0,0,1.3333,-364.421,-118.7876)"
       style="fill:rgb(255,255,204); text-rendering:geometricPrecision; font-family:sans-serif; shape-rendering:crispEdges; stroke:rgb(255,255,204); font-weight:bold; stroke-width:2;"
       id="g53">
      <rect
         x="319.7443"
         y="281.9864"
         width="157"
         style="clip-path:url(#clipPath2); stroke:none;"
         height="46.1875"
         id="rect55"
         clip-path="url(#clipPath2)" />
      <rect
         x="319.7443"
         y="281.9864"
         width="157"
         style="clip-path:url(#clipPath2); fill:none; stroke:black;"
         height="46.1875"
         id="rect57"
         clip-path="url(#clipPath2)" />
      <rect
         x="458.7443"
         y="287.9864"
         width="12"
         style="clip-path:url(#clipPath2); stroke:none; stroke-width:1;"
         height="14"
         id="rect59"
         clip-path="url(#clipPath2)" />
      <rect
         x="458.7443"
         y="287.9864"
         width="12"
         style="clip-path:url(#clipPath2); fill:none; stroke:black; stroke-width:1;"
         height="14"
         id="rect61"
         clip-path="url(#clipPath2)" />
      <rect
         x="456.7443"
         y="295.9864"
         width="6"
         style="clip-path:url(#clipPath2); stroke:none; stroke-width:1;"
         height="3"
         id="rect63"
         clip-path="url(#clipPath2)" />
      <rect
         x="456.7443"
         y="295.9864"
         width="6"
         style="clip-path:url(#clipPath2); fill:none; stroke:black; stroke-width:1;"
         height="3"
         id="rect65"
         clip-path="url(#clipPath2)" />
      <rect
         x="456.7443"
         y="290.9864"
         width="6"
         style="clip-path:url(#clipPath2); stroke:none; stroke-width:1;"
         height="3"
         id="rect67"
         clip-path="url(#clipPath2)" />
      <rect
         x="456.7443"
         y="290.9864"
         width="6"
         style="clip-path:url(#clipPath2); fill:none; stroke:black; stroke-width:1;"
         height="3"
         id="rect69"
         clip-path="url(#clipPath2)" />
    </g>
    <g
       style="font-family:sans-serif; text-rendering:optimizeLegibility;"
       transform="matrix(1.3333,0,0,1.3333,-364.421,-118.7876) translate(350.2443,298.9864)"
       id="g71">
      <path
         d="M-0.0156 0 L3.2812 -8.5938 L4.5 -8.5938 L8.0156 0 L6.7344 0 L5.7188 -2.6094 L2.1406 -2.6094 L1.1875 0 L-0.0156 0 ZM2.4688 -3.5312 L5.375 -3.5312 L4.4844 -5.9062 Q4.0625 -6.9844 3.875 -7.6875 Q3.7031 -6.8594 3.4062 -6.0469 L2.4688 -3.5312 ZM12.8633 -2.2812 L13.8945 -2.1406 Q13.7227 -1.0781 13.0195 -0.4688 Q12.3164 0.1406 11.3008 0.1406 Q10.0195 0.1406 9.2461 -0.6953 Q8.4727 -1.5312 8.4727 -3.0938 Q8.4727 -4.0938 8.8086 -4.8516 Q9.1445 -5.6094 9.8242 -5.9844 Q10.5039 -6.3594 11.3164 -6.3594 Q12.3164 -6.3594 12.9648 -5.8516 Q13.6133 -5.3438 13.8008 -4.3906 L12.7695 -4.2344 Q12.6289 -4.8594 12.2539 -5.1797 Q11.8789 -5.5 11.3477 -5.5 Q10.5508 -5.5 10.0508 -4.9297 Q9.5508 -4.3594 9.5508 -3.125 Q9.5508 -1.8594 10.0352 -1.2969 Q10.5195 -0.7344 11.2852 -0.7344 Q11.9102 -0.7344 12.3242 -1.1094 Q12.7383 -1.4844 12.8633 -2.2812 ZM18.8633 -2.2812 L19.8945 -2.1406 Q19.7227 -1.0781 19.0195 -0.4688 Q18.3164 0.1406 17.3008 0.1406 Q16.0195 0.1406 15.2461 -0.6953 Q14.4727 -1.5312 14.4727 -3.0938 Q14.4727 -4.0938 14.8086 -4.8516 Q15.1445 -5.6094 15.8242 -5.9844 Q16.5039 -6.3594 17.3164 -6.3594 Q18.3164 -6.3594 18.9648 -5.8516 Q19.6133 -5.3438 19.8008 -4.3906 L18.7695 -4.2344 Q18.6289 -4.8594 18.2539 -5.1797 Q17.8789 -5.5 17.3477 -5.5 Q16.5508 -5.5 16.0508 -4.9297 Q15.5508 -4.3594 15.5508 -3.125 Q15.5508 -1.8594 16.0352 -1.2969 Q16.5195 -0.7344 17.2852 -0.7344 Q17.9102 -0.7344 18.3242 -1.1094 Q18.7383 -1.4844 18.8633 -2.2812 ZM20.4102 -3.1094 Q20.4102 -4.8438 21.3633 -5.6719 Q22.1602 -6.3594 23.3164 -6.3594 Q24.5977 -6.3594 25.418 -5.5234 Q26.2383 -4.6875 26.2383 -3.2031 Q26.2383 -2 25.8789 -1.3125 Q25.5195 -0.625 24.8242 -0.2422 Q24.1289 0.1406 23.3164 0.1406 Q22.0195 0.1406 21.2148 -0.6953 Q20.4102 -1.5312 20.4102 -3.1094 ZM21.4883 -3.1094 Q21.4883 -1.9219 22.0117 -1.3281 Q22.5352 -0.7344 23.3164 -0.7344 Q24.1133 -0.7344 24.6289 -1.3281 Q25.1445 -1.9219 25.1445 -3.1406 Q25.1445 -4.2969 24.6211 -4.8906 Q24.0977 -5.4844 23.3164 -5.4844 Q22.5352 -5.4844 22.0117 -4.8984 Q21.4883 -4.3125 21.4883 -3.1094 ZM31.5527 0 L31.5527 -0.9219 Q30.8184 0.1406 29.5684 0.1406 Q29.0215 0.1406 28.5449 -0.0703 Q28.0684 -0.2812 27.834 -0.6016 Q27.5996 -0.9219 27.5059 -1.3906 Q27.4434 -1.6875 27.4434 -2.375 L27.4434 -6.2188 L28.5059 -6.2188 L28.5059 -2.7656 Q28.5059 -1.9531 28.5684 -1.6562 Q28.6621 -1.25 28.9824 -1.0078 Q29.3027 -0.7656 29.7871 -0.7656 Q30.2559 -0.7656 30.6699 -1.0078 Q31.084 -1.25 31.2637 -1.6719 Q31.4434 -2.0938 31.4434 -2.8906 L31.4434 -6.2188 L32.4902 -6.2188 L32.4902 0 L31.5527 0 ZM34.1484 0 L34.1484 -6.2188 L35.0859 -6.2188 L35.0859 -5.3438 Q35.7734 -6.3594 37.0703 -6.3594 Q37.6328 -6.3594 38.1094 -6.1562 Q38.5859 -5.9531 38.8203 -5.625 Q39.0547 -5.2969 39.1484 -4.8594 Q39.1953 -4.5625 39.1953 -3.8281 L39.1953 0 L38.1484 0 L38.1484 -3.7812 Q38.1484 -4.4375 38.0234 -4.75 Q37.8984 -5.0625 37.5859 -5.2578 Q37.2734 -5.4531 36.8516 -5.4531 Q36.1797 -5.4531 35.6875 -5.0234 Q35.1953 -4.5938 35.1953 -3.4062 L35.1953 0 L34.1484 0 ZM43.1191 -0.9375 L43.2754 -0.0156 Q42.8223 0.0781 42.4785 0.0781 Q41.9004 0.0781 41.5879 -0.1016 Q41.2754 -0.2812 41.1426 -0.5781 Q41.0098 -0.875 41.0098 -1.8281 L41.0098 -5.4062 L40.2441 -5.4062 L40.2441 -6.2188 L41.0098 -6.2188 L41.0098 -7.7656 L42.0566 -8.3906 L42.0566 -6.2188 L43.1191 -6.2188 L43.1191 -5.4062 L42.0566 -5.4062 L42.0566 -1.7656 Q42.0566 -1.3125 42.1113 -1.1875 Q42.166 -1.0625 42.291 -0.9844 Q42.416 -0.9062 42.6504 -0.9062 Q42.8379 -0.9062 43.1191 -0.9375 ZM47.4902 0 L47.4902 -6.2188 L48.4277 -6.2188 L48.4277 -5.3438 Q48.7246 -5.8125 49.209 -6.0859 Q49.6934 -6.3594 50.3184 -6.3594 Q51.0059 -6.3594 51.4512 -6.0781 Q51.8965 -5.7969 52.0684 -5.2812 Q52.8184 -6.3594 53.9902 -6.3594 Q54.9277 -6.3594 55.4199 -5.8516 Q55.9121 -5.3438 55.9121 -4.2656 L55.9121 0 L54.8652 0 L54.8652 -3.9219 Q54.8652 -4.5469 54.7637 -4.8281 Q54.6621 -5.1094 54.3965 -5.2812 Q54.1309 -5.4531 53.7559 -5.4531 Q53.0996 -5.4531 52.6699 -5.0156 Q52.2402 -4.5781 52.2402 -3.6094 L52.2402 0 L51.1777 0 L51.1777 -4.0469 Q51.1777 -4.75 50.9199 -5.1016 Q50.6621 -5.4531 50.084 -5.4531 Q49.6309 -5.4531 49.2559 -5.2188 Q48.8809 -4.9844 48.709 -4.5312 Q48.5371 -4.0781 48.5371 -3.2344 L48.5371 0 L47.4902 0 ZM61.5488 -0.7656 Q60.9551 -0.2656 60.416 -0.0625 Q59.877 0.1406 59.252 0.1406 Q58.2207 0.1406 57.6738 -0.3594 Q57.127 -0.8594 57.127 -1.6406 Q57.127 -2.0938 57.3301 -2.4766 Q57.5332 -2.8594 57.877 -3.0859 Q58.2207 -3.3125 58.6426 -3.4219 Q58.9395 -3.5156 59.5801 -3.5938 Q60.8457 -3.7344 61.4551 -3.9531 Q61.4551 -4.1719 61.4551 -4.2188 Q61.4551 -4.875 61.1582 -5.1406 Q60.752 -5.4844 59.9551 -5.4844 Q59.2207 -5.4844 58.8613 -5.2266 Q58.502 -4.9688 58.3301 -4.3125 L57.2988 -4.4531 Q57.4395 -5.1094 57.7676 -5.5156 Q58.0957 -5.9219 58.7051 -6.1406 Q59.3145 -6.3594 60.1113 -6.3594 Q60.9082 -6.3594 61.4082 -6.1719 Q61.9082 -5.9844 62.1426 -5.7031 Q62.377 -5.4219 62.4707 -4.9844 Q62.5176 -4.7188 62.5176 -4.0156 L62.5176 -2.6094 Q62.5176 -1.1406 62.5879 -0.75 Q62.6582 -0.3594 62.8613 0 L61.752 0 Q61.5957 -0.3281 61.5488 -0.7656 ZM61.4551 -3.125 Q60.877 -2.8906 59.7363 -2.7188 Q59.0801 -2.625 58.8145 -2.5078 Q58.5488 -2.3906 58.4004 -2.1719 Q58.252 -1.9531 58.252 -1.6719 Q58.252 -1.25 58.5723 -0.9688 Q58.8926 -0.6875 59.502 -0.6875 Q60.1113 -0.6875 60.5879 -0.9531 Q61.0645 -1.2188 61.2832 -1.6875 Q61.4551 -2.0469 61.4551 -2.7344 L61.4551 -3.125 ZM64.1602 0 L64.1602 -6.2188 L65.0977 -6.2188 L65.0977 -5.3438 Q65.7852 -6.3594 67.082 -6.3594 Q67.6445 -6.3594 68.1211 -6.1562 Q68.5977 -5.9531 68.832 -5.625 Q69.0664 -5.2969 69.1602 -4.8594 Q69.207 -4.5625 69.207 -3.8281 L69.207 0 L68.1602 0 L68.1602 -3.7812 Q68.1602 -4.4375 68.0352 -4.75 Q67.9102 -5.0625 67.5977 -5.2578 Q67.2852 -5.4531 66.8633 -5.4531 Q66.1914 -5.4531 65.6992 -5.0234 Q65.207 -4.5938 65.207 -3.4062 L65.207 0 L64.1602 0 ZM74.8965 -0.7656 Q74.3027 -0.2656 73.7637 -0.0625 Q73.2246 0.1406 72.5996 0.1406 Q71.5684 0.1406 71.0215 -0.3594 Q70.4746 -0.8594 70.4746 -1.6406 Q70.4746 -2.0938 70.6777 -2.4766 Q70.8809 -2.8594 71.2246 -3.0859 Q71.5684 -3.3125 71.9902 -3.4219 Q72.2871 -3.5156 72.9277 -3.5938 Q74.1934 -3.7344 74.8027 -3.9531 Q74.8027 -4.1719 74.8027 -4.2188 Q74.8027 -4.875 74.5059 -5.1406 Q74.0996 -5.4844 73.3027 -5.4844 Q72.5684 -5.4844 72.209 -5.2266 Q71.8496 -4.9688 71.6777 -4.3125 L70.6465 -4.4531 Q70.7871 -5.1094 71.1152 -5.5156 Q71.4434 -5.9219 72.0527 -6.1406 Q72.6621 -6.3594 73.459 -6.3594 Q74.2559 -6.3594 74.7559 -6.1719 Q75.2559 -5.9844 75.4902 -5.7031 Q75.7246 -5.4219 75.8184 -4.9844 Q75.8652 -4.7188 75.8652 -4.0156 L75.8652 -2.6094 Q75.8652 -1.1406 75.9355 -0.75 Q76.0059 -0.3594 76.209 0 L75.0996 0 Q74.9434 -0.3281 74.8965 -0.7656 ZM74.8027 -3.125 Q74.2246 -2.8906 73.084 -2.7188 Q72.4277 -2.625 72.1621 -2.5078 Q71.8965 -2.3906 71.748 -2.1719 Q71.5996 -1.9531 71.5996 -1.6719 Q71.5996 -1.25 71.9199 -0.9688 Q72.2402 -0.6875 72.8496 -0.6875 Q73.459 -0.6875 73.9355 -0.9531 Q74.4121 -1.2188 74.6309 -1.6875 Q74.8027 -2.0469 74.8027 -2.7344 L74.8027 -3.125 ZM77.3047 0.5156 L78.3359 0.6719 Q78.3984 1.1406 78.6953 1.3594 Q79.0859 1.6562 79.7578 1.6562 Q80.4922 1.6562 80.8906 1.3594 Q81.2891 1.0625 81.4297 0.5469 Q81.5234 0.2188 81.5078 -0.8125 Q80.8203 0 79.7891 0 Q78.5078 0 77.8047 -0.9297 Q77.1016 -1.8594 77.1016 -3.1406 Q77.1016 -4.0312 77.4219 -4.7891 Q77.7422 -5.5469 78.3516 -5.9531 Q78.9609 -6.3594 79.7891 -6.3594 Q80.8984 -6.3594 81.6172 -5.4688 L81.6172 -6.2188 L82.5859 -6.2188 L82.5859 -0.8438 Q82.5859 0.6094 82.2891 1.2188 Q81.9922 1.8281 81.3516 2.1797 Q80.7109 2.5312 79.7734 2.5312 Q78.6641 2.5312 77.9766 2.0312 Q77.2891 1.5312 77.3047 0.5156 ZM78.1797 -3.2188 Q78.1797 -2 78.6641 -1.4375 Q79.1484 -0.875 79.8828 -0.875 Q80.6172 -0.875 81.1094 -1.4375 Q81.6016 -2 81.6016 -3.1875 Q81.6016 -4.3281 81.0938 -4.9062 Q80.5859 -5.4844 79.8672 -5.4844 Q79.1641 -5.4844 78.6719 -4.9141 Q78.1797 -4.3438 78.1797 -3.2188 ZM88.4316 -2 L89.5254 -1.875 Q89.2754 -0.9219 88.5723 -0.3906 Q87.8691 0.1406 86.791 0.1406 Q85.4316 0.1406 84.627 -0.7031 Q83.8223 -1.5469 83.8223 -3.0625 Q83.8223 -4.625 84.6348 -5.4922 Q85.4473 -6.3594 86.7285 -6.3594 Q87.9785 -6.3594 88.7676 -5.5156 Q89.5566 -4.6719 89.5566 -3.125 Q89.5566 -3.0312 89.5566 -2.8438 L84.916 -2.8438 Q84.9785 -1.8125 85.4941 -1.2734 Q86.0098 -0.7344 86.791 -0.7344 Q87.3691 -0.7344 87.7832 -1.0391 Q88.1973 -1.3438 88.4316 -2 ZM84.9785 -3.7031 L88.4473 -3.7031 Q88.3848 -4.5 88.0566 -4.8906 Q87.541 -5.5 86.7441 -5.5 Q86.0098 -5.5 85.5176 -5.0156 Q85.0254 -4.5312 84.9785 -3.7031 ZM90.8398 0 L90.8398 -6.2188 L91.793 -6.2188 L91.793 -5.2812 Q92.1523 -5.9375 92.457 -6.1484 Q92.7617 -6.3594 93.1367 -6.3594 Q93.668 -6.3594 94.2148 -6.0312 L93.8555 -5.0469 Q93.4648 -5.2812 93.0898 -5.2812 Q92.7305 -5.2812 92.457 -5.0703 Q92.1836 -4.8594 92.0742 -4.4844 Q91.8867 -3.9219 91.8867 -3.2656 L91.8867 0 L90.8398 0 Z"
         style="stroke:none; clip-path:url(#clipPath4);"
         id="path73"
         clip-path="url(#clipPath4)" />
    </g>
    <g
       transform="matrix(1.3333,0,0,1.3333,-364.421,-118.7876)"
       style="fill:rgb(255,255,204); text-rendering:geometricPrecision; font-family:sans-serif; shape-rendering:crispEdges; stroke:rgb(255,255,204); stroke-width:2;"
       id="g75">
      <rect
         x="805.5583"
         y="143.9464"
         width="180"
         style="clip-path:url(#clipPath2); stroke:none;"
         height="46.1875"
         id="rect77"
         clip-path="url(#clipPath2)" />
      <rect
         x="805.5583"
         y="143.9464"
         width="180"
         style="clip-path:url(#clipPath2); fill:none; stroke:black;"
         height="46.1875"
         id="rect79"
         clip-path="url(#clipPath2)" />
      <rect
         x="967.5583"
         y="149.9464"
         width="12"
         style="clip-path:url(#clipPath2); stroke:none; stroke-width:1;"
         height="14"
         id="rect81"
         clip-path="url(#clipPath2)" />
      <rect
         x="967.5583"
         y="149.9464"
         width="12"
         style="clip-path:url(#clipPath2); fill:none; stroke:black; stroke-width:1;"
         height="14"
         id="rect83"
         clip-path="url(#clipPath2)" />
      <rect
         x="965.5583"
         y="157.9464"
         width="6"
         style="clip-path:url(#clipPath2); stroke:none; stroke-width:1;"
         height="3"
         id="rect85"
         clip-path="url(#clipPath2)" />
      <rect
         x="965.5583"
         y="157.9464"
         width="6"
         style="clip-path:url(#clipPath2); fill:none; stroke:black; stroke-width:1;"
         height="3"
         id="rect87"
         clip-path="url(#clipPath2)" />
      <rect
         x="965.5583"
         y="152.9464"
         width="6"
         style="clip-path:url(#clipPath2); stroke:none; stroke-width:1;"
         height="3"
         id="rect89"
         clip-path="url(#clipPath2)" />
      <rect
         x="965.5583"
         y="152.9464"
         width="6"
         style="clip-path:url(#clipPath2); fill:none; stroke:black; stroke-width:1;"
         height="3"
         id="rect91"
         clip-path="url(#clipPath2)" />
    </g>
    <g
       style="font-family:sans-serif; text-rendering:optimizeLegibility;"
       transform="matrix(1.3333,0,0,1.3333,-364.421,-118.7876) translate(836.0583,160.9464)"
       id="g93">
      <path
         d="M0.9531 0 L0.9531 -8.5938 L7.1562 -8.5938 L7.1562 -7.5781 L2.0938 -7.5781 L2.0938 -4.9531 L6.8438 -4.9531 L6.8438 -3.9375 L2.0938 -3.9375 L2.0938 -1.0156 L7.3594 -1.0156 L7.3594 0 L0.9531 0 ZM8.0977 0 L10.3633 -3.2344 L8.2695 -6.2188 L9.582 -6.2188 L10.5352 -4.7656 Q10.8008 -4.3438 10.9727 -4.0625 Q11.2227 -4.4531 11.4414 -4.75 L12.4883 -6.2188 L13.7539 -6.2188 L11.5977 -3.2969 L13.9102 0 L12.6289 0 L11.3477 -1.9375 L11.0039 -2.4531 L9.3633 0 L8.0977 0 ZM17.0977 -0.9375 L17.2539 -0.0156 Q16.8008 0.0781 16.457 0.0781 Q15.8789 0.0781 15.5664 -0.1016 Q15.2539 -0.2812 15.1211 -0.5781 Q14.9883 -0.875 14.9883 -1.8281 L14.9883 -5.4062 L14.2227 -5.4062 L14.2227 -6.2188 L14.9883 -6.2188 L14.9883 -7.7656 L16.0352 -8.3906 L16.0352 -6.2188 L17.0977 -6.2188 L17.0977 -5.4062 L16.0352 -5.4062 L16.0352 -1.7656 Q16.0352 -1.3125 16.0898 -1.1875 Q16.1445 -1.0625 16.2695 -0.9844 Q16.3945 -0.9062 16.6289 -0.9062 Q16.8164 -0.9062 17.0977 -0.9375 ZM22.3848 -2 L23.4785 -1.875 Q23.2285 -0.9219 22.5254 -0.3906 Q21.8223 0.1406 20.7441 0.1406 Q19.3848 0.1406 18.5801 -0.7031 Q17.7754 -1.5469 17.7754 -3.0625 Q17.7754 -4.625 18.5879 -5.4922 Q19.4004 -6.3594 20.6816 -6.3594 Q21.9316 -6.3594 22.7207 -5.5156 Q23.5098 -4.6719 23.5098 -3.125 Q23.5098 -3.0312 23.5098 -2.8438 L18.8691 -2.8438 Q18.9316 -1.8125 19.4473 -1.2734 Q19.9629 -0.7344 20.7441 -0.7344 Q21.3223 -0.7344 21.7363 -1.0391 Q22.1504 -1.3438 22.3848 -2 ZM18.9316 -3.7031 L22.4004 -3.7031 Q22.3379 -4.5 22.0098 -4.8906 Q21.4941 -5.5 20.6973 -5.5 Q19.9629 -5.5 19.4707 -5.0156 Q18.9785 -4.5312 18.9316 -3.7031 ZM24.793 0 L24.793 -6.2188 L25.7461 -6.2188 L25.7461 -5.2812 Q26.1055 -5.9375 26.4102 -6.1484 Q26.7148 -6.3594 27.0898 -6.3594 Q27.6211 -6.3594 28.168 -6.0312 L27.8086 -5.0469 Q27.418 -5.2812 27.043 -5.2812 Q26.6836 -5.2812 26.4102 -5.0703 Q26.1367 -4.8594 26.0273 -4.4844 Q25.8398 -3.9219 25.8398 -3.2656 L25.8398 0 L24.793 0 ZM28.8047 0 L28.8047 -6.2188 L29.7422 -6.2188 L29.7422 -5.3438 Q30.4297 -6.3594 31.7266 -6.3594 Q32.2891 -6.3594 32.7656 -6.1562 Q33.2422 -5.9531 33.4766 -5.625 Q33.7109 -5.2969 33.8047 -4.8594 Q33.8516 -4.5625 33.8516 -3.8281 L33.8516 0 L32.8047 0 L32.8047 -3.7812 Q32.8047 -4.4375 32.6797 -4.75 Q32.5547 -5.0625 32.2422 -5.2578 Q31.9297 -5.4531 31.5078 -5.4531 Q30.8359 -5.4531 30.3438 -5.0234 Q29.8516 -4.5938 29.8516 -3.4062 L29.8516 0 L28.8047 0 ZM39.541 -0.7656 Q38.9473 -0.2656 38.4082 -0.0625 Q37.8691 0.1406 37.2441 0.1406 Q36.2129 0.1406 35.666 -0.3594 Q35.1191 -0.8594 35.1191 -1.6406 Q35.1191 -2.0938 35.3223 -2.4766 Q35.5254 -2.8594 35.8691 -3.0859 Q36.2129 -3.3125 36.6348 -3.4219 Q36.9316 -3.5156 37.5723 -3.5938 Q38.8379 -3.7344 39.4473 -3.9531 Q39.4473 -4.1719 39.4473 -4.2188 Q39.4473 -4.875 39.1504 -5.1406 Q38.7441 -5.4844 37.9473 -5.4844 Q37.2129 -5.4844 36.8535 -5.2266 Q36.4941 -4.9688 36.3223 -4.3125 L35.291 -4.4531 Q35.4316 -5.1094 35.7598 -5.5156 Q36.0879 -5.9219 36.6973 -6.1406 Q37.3066 -6.3594 38.1035 -6.3594 Q38.9004 -6.3594 39.4004 -6.1719 Q39.9004 -5.9844 40.1348 -5.7031 Q40.3691 -5.4219 40.4629 -4.9844 Q40.5098 -4.7188 40.5098 -4.0156 L40.5098 -2.6094 Q40.5098 -1.1406 40.5801 -0.75 Q40.6504 -0.3594 40.8535 0 L39.7441 0 Q39.5879 -0.3281 39.541 -0.7656 ZM39.4473 -3.125 Q38.8691 -2.8906 37.7285 -2.7188 Q37.0723 -2.625 36.8066 -2.5078 Q36.541 -2.3906 36.3926 -2.1719 Q36.2441 -1.9531 36.2441 -1.6719 Q36.2441 -1.25 36.5645 -0.9688 Q36.8848 -0.6875 37.4941 -0.6875 Q38.1035 -0.6875 38.5801 -0.9531 Q39.0566 -1.2188 39.2754 -1.6875 Q39.4473 -2.0469 39.4473 -2.7344 L39.4473 -3.125 ZM42.1211 0 L42.1211 -8.5938 L43.1836 -8.5938 L43.1836 0 L42.1211 0 ZM47.3398 0 L50.6367 -8.5938 L51.8555 -8.5938 L55.3711 0 L54.0898 0 L53.0742 -2.6094 L49.4961 -2.6094 L48.543 0 L47.3398 0 ZM49.8242 -3.5312 L52.7305 -3.5312 L51.8398 -5.9062 Q51.418 -6.9844 51.2305 -7.6875 Q51.0586 -6.8594 50.7617 -6.0469 L49.8242 -3.5312 ZM56.1562 2.3906 L56.1562 -6.2188 L57.1094 -6.2188 L57.1094 -5.4219 Q57.4531 -5.8906 57.8828 -6.125 Q58.3125 -6.3594 58.9219 -6.3594 Q59.7188 -6.3594 60.3281 -5.9531 Q60.9375 -5.5469 61.2422 -4.7969 Q61.5469 -4.0469 61.5469 -3.1562 Q61.5469 -2.2031 61.2109 -1.4375 Q60.875 -0.6719 60.2188 -0.2656 Q59.5625 0.1406 58.8438 0.1406 Q58.3125 0.1406 57.8906 -0.0859 Q57.4688 -0.3125 57.2031 -0.6406 L57.2031 2.3906 L56.1562 2.3906 ZM57.1094 -3.0781 Q57.1094 -1.875 57.5938 -1.3047 Q58.0781 -0.7344 58.7656 -0.7344 Q59.4688 -0.7344 59.9688 -1.3281 Q60.4688 -1.9219 60.4688 -3.1719 Q60.4688 -4.3594 59.9844 -4.9453 Q59.5 -5.5312 58.8125 -5.5312 Q58.1406 -5.5312 57.625 -4.9062 Q57.1094 -4.2812 57.1094 -3.0781 ZM62.8301 2.3906 L62.8301 -6.2188 L63.7832 -6.2188 L63.7832 -5.4219 Q64.127 -5.8906 64.5566 -6.125 Q64.9863 -6.3594 65.5957 -6.3594 Q66.3926 -6.3594 67.002 -5.9531 Q67.6113 -5.5469 67.916 -4.7969 Q68.2207 -4.0469 68.2207 -3.1562 Q68.2207 -2.2031 67.8848 -1.4375 Q67.5488 -0.6719 66.8926 -0.2656 Q66.2363 0.1406 65.5176 0.1406 Q64.9863 0.1406 64.5645 -0.0859 Q64.1426 -0.3125 63.877 -0.6406 L63.877 2.3906 L62.8301 2.3906 ZM63.7832 -3.0781 Q63.7832 -1.875 64.2676 -1.3047 Q64.752 -0.7344 65.4395 -0.7344 Q66.1426 -0.7344 66.6426 -1.3281 Q67.1426 -1.9219 67.1426 -3.1719 Q67.1426 -4.3594 66.6582 -4.9453 Q66.1738 -5.5312 65.4863 -5.5312 Q64.8145 -5.5312 64.2988 -4.9062 Q63.7832 -4.2812 63.7832 -3.0781 ZM72.9316 0 L72.9316 -8.5938 L74.6504 -8.5938 L76.6816 -2.5156 Q76.9629 -1.6562 77.0879 -1.2344 Q77.2285 -1.7031 77.541 -2.6094 L79.6035 -8.5938 L81.1348 -8.5938 L81.1348 0 L80.041 0 L80.041 -7.1875 L77.541 0 L76.5098 0 L74.0254 -7.3125 L74.0254 0 L72.9316 0 ZM86.8965 -0.7656 Q86.3027 -0.2656 85.7637 -0.0625 Q85.2246 0.1406 84.5996 0.1406 Q83.5684 0.1406 83.0215 -0.3594 Q82.4746 -0.8594 82.4746 -1.6406 Q82.4746 -2.0938 82.6777 -2.4766 Q82.8809 -2.8594 83.2246 -3.0859 Q83.5684 -3.3125 83.9902 -3.4219 Q84.2871 -3.5156 84.9277 -3.5938 Q86.1934 -3.7344 86.8027 -3.9531 Q86.8027 -4.1719 86.8027 -4.2188 Q86.8027 -4.875 86.5059 -5.1406 Q86.0996 -5.4844 85.3027 -5.4844 Q84.5684 -5.4844 84.209 -5.2266 Q83.8496 -4.9688 83.6777 -4.3125 L82.6465 -4.4531 Q82.7871 -5.1094 83.1152 -5.5156 Q83.4434 -5.9219 84.0527 -6.1406 Q84.6621 -6.3594 85.459 -6.3594 Q86.2559 -6.3594 86.7559 -6.1719 Q87.2559 -5.9844 87.4902 -5.7031 Q87.7246 -5.4219 87.8184 -4.9844 Q87.8652 -4.7188 87.8652 -4.0156 L87.8652 -2.6094 Q87.8652 -1.1406 87.9355 -0.75 Q88.0059 -0.3594 88.209 0 L87.0996 0 Q86.9434 -0.3281 86.8965 -0.7656 ZM86.8027 -3.125 Q86.2246 -2.8906 85.084 -2.7188 Q84.4277 -2.625 84.1621 -2.5078 Q83.8965 -2.3906 83.748 -2.1719 Q83.5996 -1.9531 83.5996 -1.6719 Q83.5996 -1.25 83.9199 -0.9688 Q84.2402 -0.6875 84.8496 -0.6875 Q85.459 -0.6875 85.9355 -0.9531 Q86.4121 -1.2188 86.6309 -1.6875 Q86.8027 -2.0469 86.8027 -2.7344 L86.8027 -3.125 ZM89.5078 0 L89.5078 -6.2188 L90.4453 -6.2188 L90.4453 -5.3438 Q91.1328 -6.3594 92.4297 -6.3594 Q92.9922 -6.3594 93.4688 -6.1562 Q93.9453 -5.9531 94.1797 -5.625 Q94.4141 -5.2969 94.5078 -4.8594 Q94.5547 -4.5625 94.5547 -3.8281 L94.5547 0 L93.5078 0 L93.5078 -3.7812 Q93.5078 -4.4375 93.3828 -4.75 Q93.2578 -5.0625 92.9453 -5.2578 Q92.6328 -5.4531 92.2109 -5.4531 Q91.5391 -5.4531 91.0469 -5.0234 Q90.5547 -4.5938 90.5547 -3.4062 L90.5547 0 L89.5078 0 ZM100.2441 -0.7656 Q99.6504 -0.2656 99.1113 -0.0625 Q98.5723 0.1406 97.9473 0.1406 Q96.916 0.1406 96.3691 -0.3594 Q95.8223 -0.8594 95.8223 -1.6406 Q95.8223 -2.0938 96.0254 -2.4766 Q96.2285 -2.8594 96.5723 -3.0859 Q96.916 -3.3125 97.3379 -3.4219 Q97.6348 -3.5156 98.2754 -3.5938 Q99.541 -3.7344 100.1504 -3.9531 Q100.1504 -4.1719 100.1504 -4.2188 Q100.1504 -4.875 99.8535 -5.1406 Q99.4473 -5.4844 98.6504 -5.4844 Q97.916 -5.4844 97.5566 -5.2266 Q97.1973 -4.9688 97.0254 -4.3125 L95.9941 -4.4531 Q96.1348 -5.1094 96.4629 -5.5156 Q96.791 -5.9219 97.4004 -6.1406 Q98.0098 -6.3594 98.8066 -6.3594 Q99.6035 -6.3594 100.1035 -6.1719 Q100.6035 -5.9844 100.8379 -5.7031 Q101.0723 -5.4219 101.166 -4.9844 Q101.2129 -4.7188 101.2129 -4.0156 L101.2129 -2.6094 Q101.2129 -1.1406 101.2832 -0.75 Q101.3535 -0.3594 101.5566 0 L100.4473 0 Q100.291 -0.3281 100.2441 -0.7656 ZM100.1504 -3.125 Q99.5723 -2.8906 98.4316 -2.7188 Q97.7754 -2.625 97.5098 -2.5078 Q97.2441 -2.3906 97.0957 -2.1719 Q96.9473 -1.9531 96.9473 -1.6719 Q96.9473 -1.25 97.2676 -0.9688 Q97.5879 -0.6875 98.1973 -0.6875 Q98.8066 -0.6875 99.2832 -0.9531 Q99.7598 -1.2188 99.9785 -1.6875 Q100.1504 -2.0469 100.1504 -2.7344 L100.1504 -3.125 ZM102.6523 0.5156 L103.6836 0.6719 Q103.7461 1.1406 104.043 1.3594 Q104.4336 1.6562 105.1055 1.6562 Q105.8398 1.6562 106.2383 1.3594 Q106.6367 1.0625 106.7773 0.5469 Q106.8711 0.2188 106.8555 -0.8125 Q106.168 0 105.1367 0 Q103.8555 0 103.1523 -0.9297 Q102.4492 -1.8594 102.4492 -3.1406 Q102.4492 -4.0312 102.7695 -4.7891 Q103.0898 -5.5469 103.6992 -5.9531 Q104.3086 -6.3594 105.1367 -6.3594 Q106.2461 -6.3594 106.9648 -5.4688 L106.9648 -6.2188 L107.9336 -6.2188 L107.9336 -0.8438 Q107.9336 0.6094 107.6367 1.2188 Q107.3398 1.8281 106.6992 2.1797 Q106.0586 2.5312 105.1211 2.5312 Q104.0117 2.5312 103.3242 2.0312 Q102.6367 1.5312 102.6523 0.5156 ZM103.5273 -3.2188 Q103.5273 -2 104.0117 -1.4375 Q104.4961 -0.875 105.2305 -0.875 Q105.9648 -0.875 106.457 -1.4375 Q106.9492 -2 106.9492 -3.1875 Q106.9492 -4.3281 106.4414 -4.9062 Q105.9336 -5.4844 105.2148 -5.4844 Q104.5117 -5.4844 104.0195 -4.9141 Q103.5273 -4.3438 103.5273 -3.2188 ZM113.7793 -2 L114.873 -1.875 Q114.623 -0.9219 113.9199 -0.3906 Q113.2168 0.1406 112.1387 0.1406 Q110.7793 0.1406 109.9746 -0.7031 Q109.1699 -1.5469 109.1699 -3.0625 Q109.1699 -4.625 109.9824 -5.4922 Q110.7949 -6.3594 112.0762 -6.3594 Q113.3262 -6.3594 114.1152 -5.5156 Q114.9043 -4.6719 114.9043 -3.125 Q114.9043 -3.0312 114.9043 -2.8438 L110.2637 -2.8438 Q110.3262 -1.8125 110.8418 -1.2734 Q111.3574 -0.7344 112.1387 -0.7344 Q112.7168 -0.7344 113.1309 -1.0391 Q113.5449 -1.3438 113.7793 -2 ZM110.3262 -3.7031 L113.7949 -3.7031 Q113.7324 -4.5 113.4043 -4.8906 Q112.8887 -5.5 112.0918 -5.5 Q111.3574 -5.5 110.8652 -5.0156 Q110.373 -4.5312 110.3262 -3.7031 ZM116.1875 0 L116.1875 -6.2188 L117.1406 -6.2188 L117.1406 -5.2812 Q117.5 -5.9375 117.8047 -6.1484 Q118.1094 -6.3594 118.4844 -6.3594 Q119.0156 -6.3594 119.5625 -6.0312 L119.2031 -5.0469 Q118.8125 -5.2812 118.4375 -5.2812 Q118.0781 -5.2812 117.8047 -5.0703 Q117.5312 -4.8594 117.4219 -4.4844 Q117.2344 -3.9219 117.2344 -3.2656 L117.2344 0 L116.1875 0 Z"
         style="stroke:none; clip-path:url(#clipPath5);"
         id="path95"
         clip-path="url(#clipPath5)" />
    </g>
    <g
       transform="matrix(1.3333,0,0,1.3333,-364.421,-118.7876)"
       style="fill:rgb(255,255,204); text-rendering:geometricPrecision; font-family:sans-serif; shape-rendering:crispEdges; stroke:rgb(255,255,204); stroke-width:2;"
       id="g97">
      <rect
         x="383.186"
         y="549.8981"
         width="147"
         style="clip-path:url(#clipPath2); stroke:none;"
         height="46.1875"
         id="rect99"
         clip-path="url(#clipPath2)" />
      <rect
         x="383.186"
         y="549.8981"
         width="147"
         style="clip-path:url(#clipPath2); fill:none; stroke:black;"
         height="46.1875"
         id="rect101"
         clip-path="url(#clipPath2)" />
      <rect
         x="512.186"
         y="555.8981"
         width="12"
         style="clip-path:url(#clipPath2); stroke:none; stroke-width:1;"
         height="14"
         id="rect103"
         clip-path="url(#clipPath2)" />
      <rect
         x="512.186"
         y="555.8981"
         width="12"
         style="clip-path:url(#clipPath2); fill:none; stroke:black; stroke-width:1;"
         height="14"
         id="rect105"
         clip-path="url(#clipPath2)" />
      <rect
         x="510.186"
         y="563.8981"
         width="6"
         style="clip-path:url(#clipPath2); stroke:none; stroke-width:1;"
         height="3"
         id="rect107"
         clip-path="url(#clipPath2)" />
      <rect
         x="510.186"
         y="563.8981"
         width="6"
         style="clip-path:url(#clipPath2); fill:none; stroke:black; stroke-width:1;"
         height="3"
         id="rect109"
         clip-path="url(#clipPath2)" />
      <rect
         x="510.186"
         y="558.8981"
         width="6"
         style="clip-path:url(#clipPath2); stroke:none; stroke-width:1;"
         height="3"
         id="rect111"
         clip-path="url(#clipPath2)" />
      <rect
         x="510.186"
         y="558.8981"
         width="6"
         style="clip-path:url(#clipPath2); fill:none; stroke:black; stroke-width:1;"
         height="3"
         id="rect113"
         clip-path="url(#clipPath2)" />
    </g>
    <g
       style="font-family:sans-serif; text-rendering:optimizeLegibility;"
       transform="matrix(1.3333,0,0,1.3333,-364.421,-118.7876) translate(418.686,566.8981)"
       id="g115">
      <path
         d="M0.8906 0 L0.8906 -8.5938 L2.6094 -8.5938 L4.6406 -2.5156 Q4.9219 -1.6562 5.0469 -1.2344 Q5.1875 -1.7031 5.5 -2.6094 L7.5625 -8.5938 L9.0938 -8.5938 L9.0938 0 L8 0 L8 -7.1875 L5.5 0 L4.4688 0 L1.9844 -7.3125 L1.9844 0 L0.8906 0 ZM14.8555 -0.7656 Q14.2617 -0.2656 13.7227 -0.0625 Q13.1836 0.1406 12.5586 0.1406 Q11.5273 0.1406 10.9805 -0.3594 Q10.4336 -0.8594 10.4336 -1.6406 Q10.4336 -2.0938 10.6367 -2.4766 Q10.8398 -2.8594 11.1836 -3.0859 Q11.5273 -3.3125 11.9492 -3.4219 Q12.2461 -3.5156 12.8867 -3.5938 Q14.1523 -3.7344 14.7617 -3.9531 Q14.7617 -4.1719 14.7617 -4.2188 Q14.7617 -4.875 14.4648 -5.1406 Q14.0586 -5.4844 13.2617 -5.4844 Q12.5273 -5.4844 12.168 -5.2266 Q11.8086 -4.9688 11.6367 -4.3125 L10.6055 -4.4531 Q10.7461 -5.1094 11.0742 -5.5156 Q11.4023 -5.9219 12.0117 -6.1406 Q12.6211 -6.3594 13.418 -6.3594 Q14.2148 -6.3594 14.7148 -6.1719 Q15.2148 -5.9844 15.4492 -5.7031 Q15.6836 -5.4219 15.7773 -4.9844 Q15.8242 -4.7188 15.8242 -4.0156 L15.8242 -2.6094 Q15.8242 -1.1406 15.8945 -0.75 Q15.9648 -0.3594 16.168 0 L15.0586 0 Q14.9023 -0.3281 14.8555 -0.7656 ZM14.7617 -3.125 Q14.1836 -2.8906 13.043 -2.7188 Q12.3867 -2.625 12.1211 -2.5078 Q11.8555 -2.3906 11.707 -2.1719 Q11.5586 -1.9531 11.5586 -1.6719 Q11.5586 -1.25 11.8789 -0.9688 Q12.1992 -0.6875 12.8086 -0.6875 Q13.418 -0.6875 13.8945 -0.9531 Q14.3711 -1.2188 14.5898 -1.6875 Q14.7617 -2.0469 14.7617 -2.7344 L14.7617 -3.125 ZM17.4668 2.3906 L17.4668 -6.2188 L18.4199 -6.2188 L18.4199 -5.4219 Q18.7637 -5.8906 19.1934 -6.125 Q19.623 -6.3594 20.2324 -6.3594 Q21.0293 -6.3594 21.6387 -5.9531 Q22.248 -5.5469 22.5527 -4.7969 Q22.8574 -4.0469 22.8574 -3.1562 Q22.8574 -2.2031 22.5215 -1.4375 Q22.1855 -0.6719 21.5293 -0.2656 Q20.873 0.1406 20.1543 0.1406 Q19.623 0.1406 19.2012 -0.0859 Q18.7793 -0.3125 18.5137 -0.6406 L18.5137 2.3906 L17.4668 2.3906 ZM18.4199 -3.0781 Q18.4199 -1.875 18.9043 -1.3047 Q19.3887 -0.7344 20.0762 -0.7344 Q20.7793 -0.7344 21.2793 -1.3281 Q21.7793 -1.9219 21.7793 -3.1719 Q21.7793 -4.3594 21.2949 -4.9453 Q20.8105 -5.5312 20.123 -5.5312 Q19.4512 -5.5312 18.9355 -4.9062 Q18.4199 -4.2812 18.4199 -3.0781 ZM27.4746 0 L27.4746 -6.2188 L28.4121 -6.2188 L28.4121 -5.3438 Q28.709 -5.8125 29.1934 -6.0859 Q29.6777 -6.3594 30.3027 -6.3594 Q30.9902 -6.3594 31.4355 -6.0781 Q31.8809 -5.7969 32.0527 -5.2812 Q32.8027 -6.3594 33.9746 -6.3594 Q34.9121 -6.3594 35.4043 -5.8516 Q35.8965 -5.3438 35.8965 -4.2656 L35.8965 0 L34.8496 0 L34.8496 -3.9219 Q34.8496 -4.5469 34.748 -4.8281 Q34.6465 -5.1094 34.3809 -5.2812 Q34.1152 -5.4531 33.7402 -5.4531 Q33.084 -5.4531 32.6543 -5.0156 Q32.2246 -4.5781 32.2246 -3.6094 L32.2246 0 L31.1621 0 L31.1621 -4.0469 Q31.1621 -4.75 30.9043 -5.1016 Q30.6465 -5.4531 30.0684 -5.4531 Q29.6152 -5.4531 29.2402 -5.2188 Q28.8652 -4.9844 28.6934 -4.5312 Q28.5215 -4.0781 28.5215 -3.2344 L28.5215 0 L27.4746 0 ZM41.5332 -0.7656 Q40.9395 -0.2656 40.4004 -0.0625 Q39.8613 0.1406 39.2363 0.1406 Q38.2051 0.1406 37.6582 -0.3594 Q37.1113 -0.8594 37.1113 -1.6406 Q37.1113 -2.0938 37.3145 -2.4766 Q37.5176 -2.8594 37.8613 -3.0859 Q38.2051 -3.3125 38.627 -3.4219 Q38.9238 -3.5156 39.5645 -3.5938 Q40.8301 -3.7344 41.4395 -3.9531 Q41.4395 -4.1719 41.4395 -4.2188 Q41.4395 -4.875 41.1426 -5.1406 Q40.7363 -5.4844 39.9395 -5.4844 Q39.2051 -5.4844 38.8457 -5.2266 Q38.4863 -4.9688 38.3145 -4.3125 L37.2832 -4.4531 Q37.4238 -5.1094 37.752 -5.5156 Q38.0801 -5.9219 38.6895 -6.1406 Q39.2988 -6.3594 40.0957 -6.3594 Q40.8926 -6.3594 41.3926 -6.1719 Q41.8926 -5.9844 42.127 -5.7031 Q42.3613 -5.4219 42.4551 -4.9844 Q42.502 -4.7188 42.502 -4.0156 L42.502 -2.6094 Q42.502 -1.1406 42.5723 -0.75 Q42.6426 -0.3594 42.8457 0 L41.7363 0 Q41.5801 -0.3281 41.5332 -0.7656 ZM41.4395 -3.125 Q40.8613 -2.8906 39.7207 -2.7188 Q39.0645 -2.625 38.7988 -2.5078 Q38.5332 -2.3906 38.3848 -2.1719 Q38.2363 -1.9531 38.2363 -1.6719 Q38.2363 -1.25 38.5566 -0.9688 Q38.877 -0.6875 39.4863 -0.6875 Q40.0957 -0.6875 40.5723 -0.9531 Q41.0488 -1.2188 41.2676 -1.6875 Q41.4395 -2.0469 41.4395 -2.7344 L41.4395 -3.125 ZM44.1445 0 L44.1445 -6.2188 L45.082 -6.2188 L45.082 -5.3438 Q45.7695 -6.3594 47.0664 -6.3594 Q47.6289 -6.3594 48.1055 -6.1562 Q48.582 -5.9531 48.8164 -5.625 Q49.0508 -5.2969 49.1445 -4.8594 Q49.1914 -4.5625 49.1914 -3.8281 L49.1914 0 L48.1445 0 L48.1445 -3.7812 Q48.1445 -4.4375 48.0195 -4.75 Q47.8945 -5.0625 47.582 -5.2578 Q47.2695 -5.4531 46.8477 -5.4531 Q46.1758 -5.4531 45.6836 -5.0234 Q45.1914 -4.5938 45.1914 -3.4062 L45.1914 0 L44.1445 0 ZM54.8809 -0.7656 Q54.2871 -0.2656 53.748 -0.0625 Q53.209 0.1406 52.584 0.1406 Q51.5527 0.1406 51.0059 -0.3594 Q50.459 -0.8594 50.459 -1.6406 Q50.459 -2.0938 50.6621 -2.4766 Q50.8652 -2.8594 51.209 -3.0859 Q51.5527 -3.3125 51.9746 -3.4219 Q52.2715 -3.5156 52.9121 -3.5938 Q54.1777 -3.7344 54.7871 -3.9531 Q54.7871 -4.1719 54.7871 -4.2188 Q54.7871 -4.875 54.4902 -5.1406 Q54.084 -5.4844 53.2871 -5.4844 Q52.5527 -5.4844 52.1934 -5.2266 Q51.834 -4.9688 51.6621 -4.3125 L50.6309 -4.4531 Q50.7715 -5.1094 51.0996 -5.5156 Q51.4277 -5.9219 52.0371 -6.1406 Q52.6465 -6.3594 53.4434 -6.3594 Q54.2402 -6.3594 54.7402 -6.1719 Q55.2402 -5.9844 55.4746 -5.7031 Q55.709 -5.4219 55.8027 -4.9844 Q55.8496 -4.7188 55.8496 -4.0156 L55.8496 -2.6094 Q55.8496 -1.1406 55.9199 -0.75 Q55.9902 -0.3594 56.1934 0 L55.084 0 Q54.9277 -0.3281 54.8809 -0.7656 ZM54.7871 -3.125 Q54.209 -2.8906 53.0684 -2.7188 Q52.4121 -2.625 52.1465 -2.5078 Q51.8809 -2.3906 51.7324 -2.1719 Q51.584 -1.9531 51.584 -1.6719 Q51.584 -1.25 51.9043 -0.9688 Q52.2246 -0.6875 52.834 -0.6875 Q53.4434 -0.6875 53.9199 -0.9531 Q54.3965 -1.2188 54.6152 -1.6875 Q54.7871 -2.0469 54.7871 -2.7344 L54.7871 -3.125 ZM57.2891 0.5156 L58.3203 0.6719 Q58.3828 1.1406 58.6797 1.3594 Q59.0703 1.6562 59.7422 1.6562 Q60.4766 1.6562 60.875 1.3594 Q61.2734 1.0625 61.4141 0.5469 Q61.5078 0.2188 61.4922 -0.8125 Q60.8047 0 59.7734 0 Q58.4922 0 57.7891 -0.9297 Q57.0859 -1.8594 57.0859 -3.1406 Q57.0859 -4.0312 57.4062 -4.7891 Q57.7266 -5.5469 58.3359 -5.9531 Q58.9453 -6.3594 59.7734 -6.3594 Q60.8828 -6.3594 61.6016 -5.4688 L61.6016 -6.2188 L62.5703 -6.2188 L62.5703 -0.8438 Q62.5703 0.6094 62.2734 1.2188 Q61.9766 1.8281 61.3359 2.1797 Q60.6953 2.5312 59.7578 2.5312 Q58.6484 2.5312 57.9609 2.0312 Q57.2734 1.5312 57.2891 0.5156 ZM58.1641 -3.2188 Q58.1641 -2 58.6484 -1.4375 Q59.1328 -0.875 59.8672 -0.875 Q60.6016 -0.875 61.0938 -1.4375 Q61.5859 -2 61.5859 -3.1875 Q61.5859 -4.3281 61.0781 -4.9062 Q60.5703 -5.4844 59.8516 -5.4844 Q59.1484 -5.4844 58.6562 -4.9141 Q58.1641 -4.3438 58.1641 -3.2188 ZM68.416 -2 L69.5098 -1.875 Q69.2598 -0.9219 68.5566 -0.3906 Q67.8535 0.1406 66.7754 0.1406 Q65.416 0.1406 64.6113 -0.7031 Q63.8066 -1.5469 63.8066 -3.0625 Q63.8066 -4.625 64.6191 -5.4922 Q65.4316 -6.3594 66.7129 -6.3594 Q67.9629 -6.3594 68.752 -5.5156 Q69.541 -4.6719 69.541 -3.125 Q69.541 -3.0312 69.541 -2.8438 L64.9004 -2.8438 Q64.9629 -1.8125 65.4785 -1.2734 Q65.9941 -0.7344 66.7754 -0.7344 Q67.3535 -0.7344 67.7676 -1.0391 Q68.1816 -1.3438 68.416 -2 ZM64.9629 -3.7031 L68.4316 -3.7031 Q68.3691 -4.5 68.041 -4.8906 Q67.5254 -5.5 66.7285 -5.5 Q65.9941 -5.5 65.502 -5.0156 Q65.0098 -4.5312 64.9629 -3.7031 ZM70.8242 0 L70.8242 -6.2188 L71.7773 -6.2188 L71.7773 -5.2812 Q72.1367 -5.9375 72.4414 -6.1484 Q72.7461 -6.3594 73.1211 -6.3594 Q73.6523 -6.3594 74.1992 -6.0312 L73.8398 -5.0469 Q73.4492 -5.2812 73.0742 -5.2812 Q72.7148 -5.2812 72.4414 -5.0703 Q72.168 -4.8594 72.0586 -4.4844 Q71.8711 -3.9219 71.8711 -3.2656 L71.8711 0 L70.8242 0 Z"
         style="stroke:none; clip-path:url(#clipPath6);"
         id="path117"
         clip-path="url(#clipPath6)" />
    </g>
    <g
       transform="matrix(1.3333,0,0,1.3333,-364.421,-118.7876)"
       style="fill:rgb(255,255,204); text-rendering:geometricPrecision; font-family:sans-serif; shape-rendering:crispEdges; stroke:rgb(255,255,204); stroke-width:2;"
       id="g119">
      <rect
         x="504.3781"
         y="282.2638"
         width="210"
         style="clip-path:url(#clipPath2); stroke:none;"
         height="46.1875"
         id="rect121"
         clip-path="url(#clipPath2)" />
      <rect
         x="504.3781"
         y="282.2638"
         width="210"
         style="clip-path:url(#clipPath2); fill:none; stroke:black;"
         height="46.1875"
         id="rect123"
         clip-path="url(#clipPath2)" />
      <rect
         x="696.3781"
         y="288.2638"
         width="12"
         style="clip-path:url(#clipPath2); stroke:none; stroke-width:1;"
         height="14"
         id="rect125"
         clip-path="url(#clipPath2)" />
      <rect
         x="696.3781"
         y="288.2638"
         width="12"
         style="clip-path:url(#clipPath2); fill:none; stroke:black; stroke-width:1;"
         height="14"
         id="rect127"
         clip-path="url(#clipPath2)" />
      <rect
         x="694.3781"
         y="296.2638"
         width="6"
         style="clip-path:url(#clipPath2); stroke:none; stroke-width:1;"
         height="3"
         id="rect129"
         clip-path="url(#clipPath2)" />
      <rect
         x="694.3781"
         y="296.2638"
         width="6"
         style="clip-path:url(#clipPath2); fill:none; stroke:black; stroke-width:1;"
         height="3"
         id="rect131"
         clip-path="url(#clipPath2)" />
      <rect
         x="694.3781"
         y="291.2638"
         width="6"
         style="clip-path:url(#clipPath2); stroke:none; stroke-width:1;"
         height="3"
         id="rect133"
         clip-path="url(#clipPath2)" />
      <rect
         x="694.3781"
         y="291.2638"
         width="6"
         style="clip-path:url(#clipPath2); fill:none; stroke:black; stroke-width:1;"
         height="3"
         id="rect135"
         clip-path="url(#clipPath2)" />
    </g>
    <g
       style="font-family:sans-serif; text-rendering:optimizeLegibility;"
       transform="matrix(1.3333,0,0,1.3333,-364.421,-118.7876) translate(534.8781,299.2638)"
       id="g137">
      <path
         d="M0.9219 0 L0.9219 -8.5938 L4.1719 -8.5938 Q5.0156 -8.5938 5.4688 -8.5156 Q6.1094 -8.4062 6.5391 -8.1094 Q6.9688 -7.8125 7.2266 -7.2812 Q7.4844 -6.75 7.4844 -6.1094 Q7.4844 -5.0156 6.7891 -4.2578 Q6.0938 -3.5 4.2656 -3.5 L2.0625 -3.5 L2.0625 0 L0.9219 0 ZM2.0625 -4.5 L4.2812 -4.5 Q5.3906 -4.5 5.8516 -4.9141 Q6.3125 -5.3281 6.3125 -6.0781 Q6.3125 -6.6094 6.0391 -6.9922 Q5.7656 -7.375 5.3281 -7.5 Q5.0312 -7.5781 4.2656 -7.5781 L2.0625 -7.5781 L2.0625 -4.5 ZM8.4102 -3.1094 Q8.4102 -4.8438 9.3633 -5.6719 Q10.1602 -6.3594 11.3164 -6.3594 Q12.5977 -6.3594 13.418 -5.5234 Q14.2383 -4.6875 14.2383 -3.2031 Q14.2383 -2 13.8789 -1.3125 Q13.5195 -0.625 12.8242 -0.2422 Q12.1289 0.1406 11.3164 0.1406 Q10.0195 0.1406 9.2148 -0.6953 Q8.4102 -1.5312 8.4102 -3.1094 ZM9.4883 -3.1094 Q9.4883 -1.9219 10.0117 -1.3281 Q10.5352 -0.7344 11.3164 -0.7344 Q12.1133 -0.7344 12.6289 -1.3281 Q13.1445 -1.9219 13.1445 -3.1406 Q13.1445 -4.2969 12.6211 -4.8906 Q12.0977 -5.4844 11.3164 -5.4844 Q10.5352 -5.4844 10.0117 -4.8984 Q9.4883 -4.3125 9.4883 -3.1094 ZM16.6152 0 L14.709 -6.2188 L15.8027 -6.2188 L16.7871 -2.625 L17.1621 -1.2969 Q17.1934 -1.3906 17.4902 -2.5781 L18.4746 -6.2188 L19.5527 -6.2188 L20.4902 -2.6094 L20.8027 -1.4219 L21.1621 -2.625 L22.2246 -6.2188 L23.2559 -6.2188 L21.3027 0 L20.209 0 L19.2246 -3.7344 L18.9746 -4.7812 L17.7246 0 L16.6152 0 ZM28.3906 -2 L29.4844 -1.875 Q29.2344 -0.9219 28.5312 -0.3906 Q27.8281 0.1406 26.75 0.1406 Q25.3906 0.1406 24.5859 -0.7031 Q23.7812 -1.5469 23.7812 -3.0625 Q23.7812 -4.625 24.5938 -5.4922 Q25.4062 -6.3594 26.6875 -6.3594 Q27.9375 -6.3594 28.7266 -5.5156 Q29.5156 -4.6719 29.5156 -3.125 Q29.5156 -3.0312 29.5156 -2.8438 L24.875 -2.8438 Q24.9375 -1.8125 25.4531 -1.2734 Q25.9688 -0.7344 26.75 -0.7344 Q27.3281 -0.7344 27.7422 -1.0391 Q28.1562 -1.3438 28.3906 -2 ZM24.9375 -3.7031 L28.4062 -3.7031 Q28.3438 -4.5 28.0156 -4.8906 Q27.5 -5.5 26.7031 -5.5 Q25.9688 -5.5 25.4766 -5.0156 Q24.9844 -4.5312 24.9375 -3.7031 ZM30.7988 0 L30.7988 -6.2188 L31.752 -6.2188 L31.752 -5.2812 Q32.1113 -5.9375 32.416 -6.1484 Q32.7207 -6.3594 33.0957 -6.3594 Q33.627 -6.3594 34.1738 -6.0312 L33.8145 -5.0469 Q33.4238 -5.2812 33.0488 -5.2812 Q32.6895 -5.2812 32.416 -5.0703 Q32.1426 -4.8594 32.0332 -4.4844 Q31.8457 -3.9219 31.8457 -3.2656 L31.8457 0 L30.7988 0 ZM34.9668 0 L34.9668 -8.5938 L41.1699 -8.5938 L41.1699 -7.5781 L36.1074 -7.5781 L36.1074 -4.9531 L40.8574 -4.9531 L40.8574 -3.9375 L36.1074 -3.9375 L36.1074 -1.0156 L41.373 -1.0156 L41.373 0 L34.9668 0 ZM42.8145 0 L42.8145 -6.2188 L43.752 -6.2188 L43.752 -5.3438 Q44.4395 -6.3594 45.7363 -6.3594 Q46.2988 -6.3594 46.7754 -6.1562 Q47.252 -5.9531 47.4863 -5.625 Q47.7207 -5.2969 47.8145 -4.8594 Q47.8613 -4.5625 47.8613 -3.8281 L47.8613 0 L46.8145 0 L46.8145 -3.7812 Q46.8145 -4.4375 46.6895 -4.75 Q46.5645 -5.0625 46.252 -5.2578 Q45.9395 -5.4531 45.5176 -5.4531 Q44.8457 -5.4531 44.3535 -5.0234 Q43.8613 -4.5938 43.8613 -3.4062 L43.8613 0 L42.8145 0 ZM49.0352 -2.4375 L50.0664 -2.5781 Q50.0977 -1.5938 50.4258 -1.2344 Q50.7539 -0.875 51.3477 -0.875 Q51.7695 -0.875 52.082 -1.0703 Q52.3945 -1.2656 52.5117 -1.6016 Q52.6289 -1.9375 52.6289 -2.6719 L52.6289 -8.5938 L53.7539 -8.5938 L53.7539 -2.7344 Q53.7539 -1.6562 53.4961 -1.0625 Q53.2383 -0.4688 52.6758 -0.1641 Q52.1133 0.1406 51.3477 0.1406 Q50.2227 0.1406 49.6211 -0.5078 Q49.0195 -1.1562 49.0352 -2.4375 ZM55.0977 -3.1094 Q55.0977 -4.8438 56.0508 -5.6719 Q56.8477 -6.3594 58.0039 -6.3594 Q59.2852 -6.3594 60.1055 -5.5234 Q60.9258 -4.6875 60.9258 -3.2031 Q60.9258 -2 60.5664 -1.3125 Q60.207 -0.625 59.5117 -0.2422 Q58.8164 0.1406 58.0039 0.1406 Q56.707 0.1406 55.9023 -0.6953 Q55.0977 -1.5312 55.0977 -3.1094 ZM56.1758 -3.1094 Q56.1758 -1.9219 56.6992 -1.3281 Q57.2227 -0.7344 58.0039 -0.7344 Q58.8008 -0.7344 59.3164 -1.3281 Q59.832 -1.9219 59.832 -3.1406 Q59.832 -4.2969 59.3086 -4.8906 Q58.7852 -5.4844 58.0039 -5.4844 Q57.2227 -5.4844 56.6992 -4.8984 Q56.1758 -4.3125 56.1758 -3.1094 ZM62.1152 2.3906 L61.9902 1.4062 Q62.334 1.5 62.5996 1.5 Q62.9434 1.5 63.1543 1.3828 Q63.3652 1.2656 63.5059 1.0625 Q63.5996 0.8906 63.834 0.2656 Q63.8496 0.1875 63.9277 0.0156 L61.5527 -6.2188 L62.6934 -6.2188 L63.9902 -2.625 Q64.2402 -1.9375 64.4434 -1.1719 Q64.6309 -1.9062 64.8809 -2.5938 L66.209 -6.2188 L67.2559 -6.2188 L64.8965 0.1094 Q64.5059 1.125 64.3027 1.5156 Q64.0215 2.0469 63.6543 2.2891 Q63.2871 2.5312 62.7871 2.5312 Q62.4902 2.5312 62.1152 2.3906 ZM73.9277 -8.5938 L75.0684 -8.5938 L75.0684 -3.625 Q75.0684 -2.3281 74.7715 -1.5703 Q74.4746 -0.8125 73.709 -0.3359 Q72.9434 0.1406 71.709 0.1406 Q70.5059 0.1406 69.7324 -0.2734 Q68.959 -0.6875 68.6309 -1.4766 Q68.3027 -2.2656 68.3027 -3.625 L68.3027 -8.5938 L69.4434 -8.5938 L69.4434 -3.6406 Q69.4434 -2.5156 69.6543 -1.9844 Q69.8652 -1.4531 70.373 -1.1641 Q70.8809 -0.875 71.6152 -0.875 Q72.8652 -0.875 73.3965 -1.4453 Q73.9277 -2.0156 73.9277 -3.6406 L73.9277 -8.5938 ZM76.4062 -1.8594 L77.4375 -2.0156 Q77.5312 -1.3906 77.9297 -1.0625 Q78.3281 -0.7344 79.0625 -0.7344 Q79.7812 -0.7344 80.1328 -1.0234 Q80.4844 -1.3125 80.4844 -1.7188 Q80.4844 -2.0781 80.1719 -2.2812 Q79.9531 -2.4219 79.0938 -2.6406 Q77.9375 -2.9375 77.4922 -3.1484 Q77.0469 -3.3594 76.8125 -3.7344 Q76.5781 -4.1094 76.5781 -4.5781 Q76.5781 -4.9844 76.7656 -5.3438 Q76.9531 -5.7031 77.2812 -5.9375 Q77.5312 -6.1094 77.9531 -6.2344 Q78.375 -6.3594 78.875 -6.3594 Q79.5938 -6.3594 80.1484 -6.1484 Q80.7031 -5.9375 80.9688 -5.5781 Q81.2344 -5.2188 81.3281 -4.625 L80.2969 -4.4844 Q80.2344 -4.9531 79.8984 -5.2266 Q79.5625 -5.5 78.9375 -5.5 Q78.2188 -5.5 77.9062 -5.2578 Q77.5938 -5.0156 77.5938 -4.6875 Q77.5938 -4.4844 77.7188 -4.3281 Q77.8594 -4.1562 78.125 -4.0469 Q78.2812 -3.9844 79.0625 -3.7812 Q80.1875 -3.4688 80.625 -3.2812 Q81.0625 -3.0938 81.3125 -2.7344 Q81.5625 -2.375 81.5625 -1.8281 Q81.5625 -1.2969 81.2578 -0.8359 Q80.9531 -0.375 80.375 -0.1172 Q79.7969 0.1406 79.0625 0.1406 Q77.8438 0.1406 77.2109 -0.3672 Q76.5781 -0.875 76.4062 -1.8594 ZM87.0781 -2 L88.1719 -1.875 Q87.9219 -0.9219 87.2188 -0.3906 Q86.5156 0.1406 85.4375 0.1406 Q84.0781 0.1406 83.2734 -0.7031 Q82.4688 -1.5469 82.4688 -3.0625 Q82.4688 -4.625 83.2812 -5.4922 Q84.0938 -6.3594 85.375 -6.3594 Q86.625 -6.3594 87.4141 -5.5156 Q88.2031 -4.6719 88.2031 -3.125 Q88.2031 -3.0312 88.2031 -2.8438 L83.5625 -2.8438 Q83.625 -1.8125 84.1406 -1.2734 Q84.6562 -0.7344 85.4375 -0.7344 Q86.0156 -0.7344 86.4297 -1.0391 Q86.8438 -1.3438 87.0781 -2 ZM83.625 -3.7031 L87.0938 -3.7031 Q87.0312 -4.5 86.7031 -4.8906 Q86.1875 -5.5 85.3906 -5.5 Q84.6562 -5.5 84.1641 -5.0156 Q83.6719 -4.5312 83.625 -3.7031 ZM89.4863 0 L89.4863 -6.2188 L90.4395 -6.2188 L90.4395 -5.2812 Q90.7988 -5.9375 91.1035 -6.1484 Q91.4082 -6.3594 91.7832 -6.3594 Q92.3145 -6.3594 92.8613 -6.0312 L92.502 -5.0469 Q92.1113 -5.2812 91.7363 -5.2812 Q91.377 -5.2812 91.1035 -5.0703 Q90.8301 -4.8594 90.7207 -4.4844 Q90.5332 -3.9219 90.5332 -3.2656 L90.5332 0 L89.4863 0 ZM96.9258 0 L96.9258 -8.5938 L98.6445 -8.5938 L100.6758 -2.5156 Q100.957 -1.6562 101.082 -1.2344 Q101.2227 -1.7031 101.5352 -2.6094 L103.5977 -8.5938 L105.1289 -8.5938 L105.1289 0 L104.0352 0 L104.0352 -7.1875 L101.5352 0 L100.5039 0 L98.0195 -7.3125 L98.0195 0 L96.9258 0 ZM110.8906 -0.7656 Q110.2969 -0.2656 109.7578 -0.0625 Q109.2188 0.1406 108.5938 0.1406 Q107.5625 0.1406 107.0156 -0.3594 Q106.4688 -0.8594 106.4688 -1.6406 Q106.4688 -2.0938 106.6719 -2.4766 Q106.875 -2.8594 107.2188 -3.0859 Q107.5625 -3.3125 107.9844 -3.4219 Q108.2812 -3.5156 108.9219 -3.5938 Q110.1875 -3.7344 110.7969 -3.9531 Q110.7969 -4.1719 110.7969 -4.2188 Q110.7969 -4.875 110.5 -5.1406 Q110.0938 -5.4844 109.2969 -5.4844 Q108.5625 -5.4844 108.2031 -5.2266 Q107.8438 -4.9688 107.6719 -4.3125 L106.6406 -4.4531 Q106.7812 -5.1094 107.1094 -5.5156 Q107.4375 -5.9219 108.0469 -6.1406 Q108.6562 -6.3594 109.4531 -6.3594 Q110.25 -6.3594 110.75 -6.1719 Q111.25 -5.9844 111.4844 -5.7031 Q111.7188 -5.4219 111.8125 -4.9844 Q111.8594 -4.7188 111.8594 -4.0156 L111.8594 -2.6094 Q111.8594 -1.1406 111.9297 -0.75 Q112 -0.3594 112.2031 0 L111.0938 0 Q110.9375 -0.3281 110.8906 -0.7656 ZM110.7969 -3.125 Q110.2188 -2.8906 109.0781 -2.7188 Q108.4219 -2.625 108.1562 -2.5078 Q107.8906 -2.3906 107.7422 -2.1719 Q107.5938 -1.9531 107.5938 -1.6719 Q107.5938 -1.25 107.9141 -0.9688 Q108.2344 -0.6875 108.8438 -0.6875 Q109.4531 -0.6875 109.9297 -0.9531 Q110.4062 -1.2188 110.625 -1.6875 Q110.7969 -2.0469 110.7969 -2.7344 L110.7969 -3.125 ZM113.502 0 L113.502 -6.2188 L114.4395 -6.2188 L114.4395 -5.3438 Q115.127 -6.3594 116.4238 -6.3594 Q116.9863 -6.3594 117.4629 -6.1562 Q117.9395 -5.9531 118.1738 -5.625 Q118.4082 -5.2969 118.502 -4.8594 Q118.5488 -4.5625 118.5488 -3.8281 L118.5488 0 L117.502 0 L117.502 -3.7812 Q117.502 -4.4375 117.377 -4.75 Q117.252 -5.0625 116.9395 -5.2578 Q116.627 -5.4531 116.2051 -5.4531 Q115.5332 -5.4531 115.041 -5.0234 Q114.5488 -4.5938 114.5488 -3.4062 L114.5488 0 L113.502 0 ZM124.2383 -0.7656 Q123.6445 -0.2656 123.1055 -0.0625 Q122.5664 0.1406 121.9414 0.1406 Q120.9102 0.1406 120.3633 -0.3594 Q119.8164 -0.8594 119.8164 -1.6406 Q119.8164 -2.0938 120.0195 -2.4766 Q120.2227 -2.8594 120.5664 -3.0859 Q120.9102 -3.3125 121.332 -3.4219 Q121.6289 -3.5156 122.2695 -3.5938 Q123.5352 -3.7344 124.1445 -3.9531 Q124.1445 -4.1719 124.1445 -4.2188 Q124.1445 -4.875 123.8477 -5.1406 Q123.4414 -5.4844 122.6445 -5.4844 Q121.9102 -5.4844 121.5508 -5.2266 Q121.1914 -4.9688 121.0195 -4.3125 L119.9883 -4.4531 Q120.1289 -5.1094 120.457 -5.5156 Q120.7852 -5.9219 121.3945 -6.1406 Q122.0039 -6.3594 122.8008 -6.3594 Q123.5977 -6.3594 124.0977 -6.1719 Q124.5977 -5.9844 124.832 -5.7031 Q125.0664 -5.4219 125.1602 -4.9844 Q125.207 -4.7188 125.207 -4.0156 L125.207 -2.6094 Q125.207 -1.1406 125.2773 -0.75 Q125.3477 -0.3594 125.5508 0 L124.4414 0 Q124.2852 -0.3281 124.2383 -0.7656 ZM124.1445 -3.125 Q123.5664 -2.8906 122.4258 -2.7188 Q121.7695 -2.625 121.5039 -2.5078 Q121.2383 -2.3906 121.0898 -2.1719 Q120.9414 -1.9531 120.9414 -1.6719 Q120.9414 -1.25 121.2617 -0.9688 Q121.582 -0.6875 122.1914 -0.6875 Q122.8008 -0.6875 123.2773 -0.9531 Q123.7539 -1.2188 123.9727 -1.6875 Q124.1445 -2.0469 124.1445 -2.7344 L124.1445 -3.125 ZM126.6465 0.5156 L127.6777 0.6719 Q127.7402 1.1406 128.0371 1.3594 Q128.4277 1.6562 129.0996 1.6562 Q129.834 1.6562 130.2324 1.3594 Q130.6309 1.0625 130.7715 0.5469 Q130.8652 0.2188 130.8496 -0.8125 Q130.1621 0 129.1309 0 Q127.8496 0 127.1465 -0.9297 Q126.4434 -1.8594 126.4434 -3.1406 Q126.4434 -4.0312 126.7637 -4.7891 Q127.084 -5.5469 127.6934 -5.9531 Q128.3027 -6.3594 129.1309 -6.3594 Q130.2402 -6.3594 130.959 -5.4688 L130.959 -6.2188 L131.9277 -6.2188 L131.9277 -0.8438 Q131.9277 0.6094 131.6309 1.2188 Q131.334 1.8281 130.6934 2.1797 Q130.0527 2.5312 129.1152 2.5312 Q128.0059 2.5312 127.3184 2.0312 Q126.6309 1.5312 126.6465 0.5156 ZM127.5215 -3.2188 Q127.5215 -2 128.0059 -1.4375 Q128.4902 -0.875 129.2246 -0.875 Q129.959 -0.875 130.4512 -1.4375 Q130.9434 -2 130.9434 -3.1875 Q130.9434 -4.3281 130.4355 -4.9062 Q129.9277 -5.4844 129.209 -5.4844 Q128.5059 -5.4844 128.0137 -4.9141 Q127.5215 -4.3438 127.5215 -3.2188 ZM137.7734 -2 L138.8672 -1.875 Q138.6172 -0.9219 137.9141 -0.3906 Q137.2109 0.1406 136.1328 0.1406 Q134.7734 0.1406 133.9688 -0.7031 Q133.1641 -1.5469 133.1641 -3.0625 Q133.1641 -4.625 133.9766 -5.4922 Q134.7891 -6.3594 136.0703 -6.3594 Q137.3203 -6.3594 138.1094 -5.5156 Q138.8984 -4.6719 138.8984 -3.125 Q138.8984 -3.0312 138.8984 -2.8438 L134.2578 -2.8438 Q134.3203 -1.8125 134.8359 -1.2734 Q135.3516 -0.7344 136.1328 -0.7344 Q136.7109 -0.7344 137.125 -1.0391 Q137.5391 -1.3438 137.7734 -2 ZM134.3203 -3.7031 L137.7891 -3.7031 Q137.7266 -4.5 137.3984 -4.8906 Q136.8828 -5.5 136.0859 -5.5 Q135.3516 -5.5 134.8594 -5.0156 Q134.3672 -4.5312 134.3203 -3.7031 ZM140.1816 0 L140.1816 -6.2188 L141.1348 -6.2188 L141.1348 -5.2812 Q141.4941 -5.9375 141.7988 -6.1484 Q142.1035 -6.3594 142.4785 -6.3594 Q143.0098 -6.3594 143.5566 -6.0312 L143.1973 -5.0469 Q142.8066 -5.2812 142.4316 -5.2812 Q142.0723 -5.2812 141.7988 -5.0703 Q141.5254 -4.8594 141.416 -4.4844 Q141.2285 -3.9219 141.2285 -3.2656 L141.2285 0 L140.1816 0 Z"
         style="stroke:none; clip-path:url(#clipPath7);"
         id="path139"
         clip-path="url(#clipPath7)" />
    </g>
    <g
       transform="matrix(1.3333,0,0,1.3333,-364.421,-118.7876)"
       style="fill:rgb(255,255,204); text-rendering:geometricPrecision; font-family:sans-serif; shape-rendering:crispEdges; stroke:rgb(255,255,204); stroke-width:2;"
       id="g141">
      <rect
         x="839.7203"
         y="549.6824"
         width="195"
         style="clip-path:url(#clipPath2); stroke:none;"
         height="46.1875"
         id="rect143"
         clip-path="url(#clipPath2)" />
      <rect
         x="839.7203"
         y="549.6824"
         width="195"
         style="clip-path:url(#clipPath2); fill:none; stroke:black;"
         height="46.1875"
         id="rect145"
         clip-path="url(#clipPath2)" />
      <rect
         x="1016.7203"
         y="555.6824"
         width="12"
         style="clip-path:url(#clipPath2); stroke:none; stroke-width:1;"
         height="14"
         id="rect147"
         clip-path="url(#clipPath2)" />
      <rect
         x="1016.7203"
         y="555.6824"
         width="12"
         style="clip-path:url(#clipPath2); fill:none; stroke:black; stroke-width:1;"
         height="14"
         id="rect149"
         clip-path="url(#clipPath2)" />
      <rect
         x="1014.7203"
         y="563.6824"
         width="6"
         style="clip-path:url(#clipPath2); stroke:none; stroke-width:1;"
         height="3"
         id="rect151"
         clip-path="url(#clipPath2)" />
      <rect
         x="1014.7203"
         y="563.6824"
         width="6"
         style="clip-path:url(#clipPath2); fill:none; stroke:black; stroke-width:1;"
         height="3"
         id="rect153"
         clip-path="url(#clipPath2)" />
      <rect
         x="1014.7203"
         y="558.6824"
         width="6"
         style="clip-path:url(#clipPath2); stroke:none; stroke-width:1;"
         height="3"
         id="rect155"
         clip-path="url(#clipPath2)" />
      <rect
         x="1014.7203"
         y="558.6824"
         width="6"
         style="clip-path:url(#clipPath2); fill:none; stroke:black; stroke-width:1;"
         height="3"
         id="rect157"
         clip-path="url(#clipPath2)" />
    </g>
    <g
       style="font-family:sans-serif; text-rendering:optimizeLegibility;"
       transform="matrix(1.3333,0,0,1.3333,-364.421,-118.7876) translate(877.7203,566.6824)"
       id="g159">
      <path
         d="M0.9375 0 L0.9375 -8.5938 L4.75 -8.5938 Q5.9062 -8.5938 6.5 -8.3594 Q7.0938 -8.125 7.4531 -7.5391 Q7.8125 -6.9531 7.8125 -6.25 Q7.8125 -5.3281 7.2188 -4.7031 Q6.625 -4.0781 5.3906 -3.9062 Q5.8438 -3.6875 6.0781 -3.4844 Q6.5781 -3.0312 7.0156 -2.3438 L8.5156 0 L7.0781 0 L5.9531 -1.7812 Q5.4531 -2.5625 5.1328 -2.9688 Q4.8125 -3.375 4.5547 -3.5391 Q4.2969 -3.7031 4.0312 -3.7812 Q3.8438 -3.8125 3.4062 -3.8125 L2.0781 -3.8125 L2.0781 0 L0.9375 0 ZM2.0781 -4.7969 L4.5312 -4.7969 Q5.2969 -4.7969 5.7422 -4.9609 Q6.1875 -5.125 6.4141 -5.4766 Q6.6406 -5.8281 6.6406 -6.25 Q6.6406 -6.8594 6.1953 -7.25 Q5.75 -7.6406 4.7969 -7.6406 L2.0781 -7.6406 L2.0781 -4.7969 ZM13.7129 -2 L14.8066 -1.875 Q14.5566 -0.9219 13.8535 -0.3906 Q13.1504 0.1406 12.0723 0.1406 Q10.7129 0.1406 9.9082 -0.7031 Q9.1035 -1.5469 9.1035 -3.0625 Q9.1035 -4.625 9.916 -5.4922 Q10.7285 -6.3594 12.0098 -6.3594 Q13.2598 -6.3594 14.0488 -5.5156 Q14.8379 -4.6719 14.8379 -3.125 Q14.8379 -3.0312 14.8379 -2.8438 L10.1973 -2.8438 Q10.2598 -1.8125 10.7754 -1.2734 Q11.291 -0.7344 12.0723 -0.7344 Q12.6504 -0.7344 13.0645 -1.0391 Q13.4785 -1.3438 13.7129 -2 ZM10.2598 -3.7031 L13.7285 -3.7031 Q13.666 -4.5 13.3379 -4.8906 Q12.8223 -5.5 12.0254 -5.5 Q11.291 -5.5 10.7988 -5.0156 Q10.3066 -4.5312 10.2598 -3.7031 ZM15.7148 -1.8594 L16.7461 -2.0156 Q16.8398 -1.3906 17.2383 -1.0625 Q17.6367 -0.7344 18.3711 -0.7344 Q19.0898 -0.7344 19.4414 -1.0234 Q19.793 -1.3125 19.793 -1.7188 Q19.793 -2.0781 19.4805 -2.2812 Q19.2617 -2.4219 18.4023 -2.6406 Q17.2461 -2.9375 16.8008 -3.1484 Q16.3555 -3.3594 16.1211 -3.7344 Q15.8867 -4.1094 15.8867 -4.5781 Q15.8867 -4.9844 16.0742 -5.3438 Q16.2617 -5.7031 16.5898 -5.9375 Q16.8398 -6.1094 17.2617 -6.2344 Q17.6836 -6.3594 18.1836 -6.3594 Q18.9023 -6.3594 19.457 -6.1484 Q20.0117 -5.9375 20.2773 -5.5781 Q20.543 -5.2188 20.6367 -4.625 L19.6055 -4.4844 Q19.543 -4.9531 19.207 -5.2266 Q18.8711 -5.5 18.2461 -5.5 Q17.5273 -5.5 17.2148 -5.2578 Q16.9023 -5.0156 16.9023 -4.6875 Q16.9023 -4.4844 17.0273 -4.3281 Q17.168 -4.1562 17.4336 -4.0469 Q17.5898 -3.9844 18.3711 -3.7812 Q19.4961 -3.4688 19.9336 -3.2812 Q20.3711 -3.0938 20.6211 -2.7344 Q20.8711 -2.375 20.8711 -1.8281 Q20.8711 -1.2969 20.5664 -0.8359 Q20.2617 -0.375 19.6836 -0.1172 Q19.1055 0.1406 18.3711 0.1406 Q17.1523 0.1406 16.5195 -0.3672 Q15.8867 -0.875 15.7148 -1.8594 ZM26.3867 -2 L27.4805 -1.875 Q27.2305 -0.9219 26.5273 -0.3906 Q25.8242 0.1406 24.7461 0.1406 Q23.3867 0.1406 22.582 -0.7031 Q21.7773 -1.5469 21.7773 -3.0625 Q21.7773 -4.625 22.5898 -5.4922 Q23.4023 -6.3594 24.6836 -6.3594 Q25.9336 -6.3594 26.7227 -5.5156 Q27.5117 -4.6719 27.5117 -3.125 Q27.5117 -3.0312 27.5117 -2.8438 L22.8711 -2.8438 Q22.9336 -1.8125 23.4492 -1.2734 Q23.9648 -0.7344 24.7461 -0.7344 Q25.3242 -0.7344 25.7383 -1.0391 Q26.1523 -1.3438 26.3867 -2 ZM22.9336 -3.7031 L26.4023 -3.7031 Q26.3398 -4.5 26.0117 -4.8906 Q25.4961 -5.5 24.6992 -5.5 Q23.9648 -5.5 23.4727 -5.0156 Q22.9805 -4.5312 22.9336 -3.7031 ZM28.7949 0 L28.7949 -6.2188 L29.748 -6.2188 L29.748 -5.2812 Q30.1074 -5.9375 30.4121 -6.1484 Q30.7168 -6.3594 31.0918 -6.3594 Q31.623 -6.3594 32.1699 -6.0312 L31.8105 -5.0469 Q31.4199 -5.2812 31.0449 -5.2812 Q30.6855 -5.2812 30.4121 -5.0703 Q30.1387 -4.8594 30.0293 -4.4844 Q29.8418 -3.9219 29.8418 -3.2656 L29.8418 0 L28.7949 0 ZM34.5254 0 L32.166 -6.2188 L33.2754 -6.2188 L34.6191 -2.5 Q34.8223 -1.8906 35.0098 -1.25 Q35.1504 -1.7344 35.4004 -2.4219 L36.791 -6.2188 L37.8691 -6.2188 L35.5098 0 L34.5254 0 ZM42.8691 -0.7656 Q42.2754 -0.2656 41.7363 -0.0625 Q41.1973 0.1406 40.5723 0.1406 Q39.541 0.1406 38.9941 -0.3594 Q38.4473 -0.8594 38.4473 -1.6406 Q38.4473 -2.0938 38.6504 -2.4766 Q38.8535 -2.8594 39.1973 -3.0859 Q39.541 -3.3125 39.9629 -3.4219 Q40.2598 -3.5156 40.9004 -3.5938 Q42.166 -3.7344 42.7754 -3.9531 Q42.7754 -4.1719 42.7754 -4.2188 Q42.7754 -4.875 42.4785 -5.1406 Q42.0723 -5.4844 41.2754 -5.4844 Q40.541 -5.4844 40.1816 -5.2266 Q39.8223 -4.9688 39.6504 -4.3125 L38.6191 -4.4531 Q38.7598 -5.1094 39.0879 -5.5156 Q39.416 -5.9219 40.0254 -6.1406 Q40.6348 -6.3594 41.4316 -6.3594 Q42.2285 -6.3594 42.7285 -6.1719 Q43.2285 -5.9844 43.4629 -5.7031 Q43.6973 -5.4219 43.791 -4.9844 Q43.8379 -4.7188 43.8379 -4.0156 L43.8379 -2.6094 Q43.8379 -1.1406 43.9082 -0.75 Q43.9785 -0.3594 44.1816 0 L43.0723 0 Q42.916 -0.3281 42.8691 -0.7656 ZM42.7754 -3.125 Q42.1973 -2.8906 41.0566 -2.7188 Q40.4004 -2.625 40.1348 -2.5078 Q39.8691 -2.3906 39.7207 -2.1719 Q39.5723 -1.9531 39.5723 -1.6719 Q39.5723 -1.25 39.8926 -0.9688 Q40.2129 -0.6875 40.8223 -0.6875 Q41.4316 -0.6875 41.9082 -0.9531 Q42.3848 -1.2188 42.6035 -1.6875 Q42.7754 -2.0469 42.7754 -2.7344 L42.7754 -3.125 ZM47.7773 -0.9375 L47.9336 -0.0156 Q47.4805 0.0781 47.1367 0.0781 Q46.5586 0.0781 46.2461 -0.1016 Q45.9336 -0.2812 45.8008 -0.5781 Q45.668 -0.875 45.668 -1.8281 L45.668 -5.4062 L44.9023 -5.4062 L44.9023 -6.2188 L45.668 -6.2188 L45.668 -7.7656 L46.7148 -8.3906 L46.7148 -6.2188 L47.7773 -6.2188 L47.7773 -5.4062 L46.7148 -5.4062 L46.7148 -1.7656 Q46.7148 -1.3125 46.7695 -1.1875 Q46.8242 -1.0625 46.9492 -0.9844 Q47.0742 -0.9062 47.3086 -0.9062 Q47.4961 -0.9062 47.7773 -0.9375 ZM48.8145 -7.375 L48.8145 -8.5938 L49.877 -8.5938 L49.877 -7.375 L48.8145 -7.375 ZM48.8145 0 L48.8145 -6.2188 L49.877 -6.2188 L49.877 0 L48.8145 0 ZM51.0898 -3.1094 Q51.0898 -4.8438 52.043 -5.6719 Q52.8398 -6.3594 53.9961 -6.3594 Q55.2773 -6.3594 56.0977 -5.5234 Q56.918 -4.6875 56.918 -3.2031 Q56.918 -2 56.5586 -1.3125 Q56.1992 -0.625 55.5039 -0.2422 Q54.8086 0.1406 53.9961 0.1406 Q52.6992 0.1406 51.8945 -0.6953 Q51.0898 -1.5312 51.0898 -3.1094 ZM52.168 -3.1094 Q52.168 -1.9219 52.6914 -1.3281 Q53.2148 -0.7344 53.9961 -0.7344 Q54.793 -0.7344 55.3086 -1.3281 Q55.8242 -1.9219 55.8242 -3.1406 Q55.8242 -4.2969 55.3008 -4.8906 Q54.7773 -5.4844 53.9961 -5.4844 Q53.2148 -5.4844 52.6914 -4.8984 Q52.168 -4.3125 52.168 -3.1094 ZM58.1543 0 L58.1543 -6.2188 L59.0918 -6.2188 L59.0918 -5.3438 Q59.7793 -6.3594 61.0762 -6.3594 Q61.6387 -6.3594 62.1152 -6.1562 Q62.5918 -5.9531 62.8262 -5.625 Q63.0605 -5.2969 63.1543 -4.8594 Q63.2012 -4.5625 63.2012 -3.8281 L63.2012 0 L62.1543 0 L62.1543 -3.7812 Q62.1543 -4.4375 62.0293 -4.75 Q61.9043 -5.0625 61.5918 -5.2578 Q61.2793 -5.4531 60.8574 -5.4531 Q60.1855 -5.4531 59.6934 -5.0234 Q59.2012 -4.5938 59.2012 -3.4062 L59.2012 0 L58.1543 0 ZM68.1621 0 L68.1621 -6.2188 L69.0996 -6.2188 L69.0996 -5.3438 Q69.3965 -5.8125 69.8809 -6.0859 Q70.3652 -6.3594 70.9902 -6.3594 Q71.6777 -6.3594 72.123 -6.0781 Q72.5684 -5.7969 72.7402 -5.2812 Q73.4902 -6.3594 74.6621 -6.3594 Q75.5996 -6.3594 76.0918 -5.8516 Q76.584 -5.3438 76.584 -4.2656 L76.584 0 L75.5371 0 L75.5371 -3.9219 Q75.5371 -4.5469 75.4355 -4.8281 Q75.334 -5.1094 75.0684 -5.2812 Q74.8027 -5.4531 74.4277 -5.4531 Q73.7715 -5.4531 73.3418 -5.0156 Q72.9121 -4.5781 72.9121 -3.6094 L72.9121 0 L71.8496 0 L71.8496 -4.0469 Q71.8496 -4.75 71.5918 -5.1016 Q71.334 -5.4531 70.7559 -5.4531 Q70.3027 -5.4531 69.9277 -5.2188 Q69.5527 -4.9844 69.3809 -4.5312 Q69.209 -4.0781 69.209 -3.2344 L69.209 0 L68.1621 0 ZM82.2207 -0.7656 Q81.627 -0.2656 81.0879 -0.0625 Q80.5488 0.1406 79.9238 0.1406 Q78.8926 0.1406 78.3457 -0.3594 Q77.7988 -0.8594 77.7988 -1.6406 Q77.7988 -2.0938 78.002 -2.4766 Q78.2051 -2.8594 78.5488 -3.0859 Q78.8926 -3.3125 79.3145 -3.4219 Q79.6113 -3.5156 80.252 -3.5938 Q81.5176 -3.7344 82.127 -3.9531 Q82.127 -4.1719 82.127 -4.2188 Q82.127 -4.875 81.8301 -5.1406 Q81.4238 -5.4844 80.627 -5.4844 Q79.8926 -5.4844 79.5332 -5.2266 Q79.1738 -4.9688 79.002 -4.3125 L77.9707 -4.4531 Q78.1113 -5.1094 78.4395 -5.5156 Q78.7676 -5.9219 79.377 -6.1406 Q79.9863 -6.3594 80.7832 -6.3594 Q81.5801 -6.3594 82.0801 -6.1719 Q82.5801 -5.9844 82.8145 -5.7031 Q83.0488 -5.4219 83.1426 -4.9844 Q83.1895 -4.7188 83.1895 -4.0156 L83.1895 -2.6094 Q83.1895 -1.1406 83.2598 -0.75 Q83.3301 -0.3594 83.5332 0 L82.4238 0 Q82.2676 -0.3281 82.2207 -0.7656 ZM82.127 -3.125 Q81.5488 -2.8906 80.4082 -2.7188 Q79.752 -2.625 79.4863 -2.5078 Q79.2207 -2.3906 79.0723 -2.1719 Q78.9238 -1.9531 78.9238 -1.6719 Q78.9238 -1.25 79.2441 -0.9688 Q79.5645 -0.6875 80.1738 -0.6875 Q80.7832 -0.6875 81.2598 -0.9531 Q81.7363 -1.2188 81.9551 -1.6875 Q82.127 -2.0469 82.127 -2.7344 L82.127 -3.125 ZM84.832 0 L84.832 -6.2188 L85.7695 -6.2188 L85.7695 -5.3438 Q86.457 -6.3594 87.7539 -6.3594 Q88.3164 -6.3594 88.793 -6.1562 Q89.2695 -5.9531 89.5039 -5.625 Q89.7383 -5.2969 89.832 -4.8594 Q89.8789 -4.5625 89.8789 -3.8281 L89.8789 0 L88.832 0 L88.832 -3.7812 Q88.832 -4.4375 88.707 -4.75 Q88.582 -5.0625 88.2695 -5.2578 Q87.957 -5.4531 87.5352 -5.4531 Q86.8633 -5.4531 86.3711 -5.0234 Q85.8789 -4.5938 85.8789 -3.4062 L85.8789 0 L84.832 0 ZM95.5684 -0.7656 Q94.9746 -0.2656 94.4355 -0.0625 Q93.8965 0.1406 93.2715 0.1406 Q92.2402 0.1406 91.6934 -0.3594 Q91.1465 -0.8594 91.1465 -1.6406 Q91.1465 -2.0938 91.3496 -2.4766 Q91.5527 -2.8594 91.8965 -3.0859 Q92.2402 -3.3125 92.6621 -3.4219 Q92.959 -3.5156 93.5996 -3.5938 Q94.8652 -3.7344 95.4746 -3.9531 Q95.4746 -4.1719 95.4746 -4.2188 Q95.4746 -4.875 95.1777 -5.1406 Q94.7715 -5.4844 93.9746 -5.4844 Q93.2402 -5.4844 92.8809 -5.2266 Q92.5215 -4.9688 92.3496 -4.3125 L91.3184 -4.4531 Q91.459 -5.1094 91.7871 -5.5156 Q92.1152 -5.9219 92.7246 -6.1406 Q93.334 -6.3594 94.1309 -6.3594 Q94.9277 -6.3594 95.4277 -6.1719 Q95.9277 -5.9844 96.1621 -5.7031 Q96.3965 -5.4219 96.4902 -4.9844 Q96.5371 -4.7188 96.5371 -4.0156 L96.5371 -2.6094 Q96.5371 -1.1406 96.6074 -0.75 Q96.6777 -0.3594 96.8809 0 L95.7715 0 Q95.6152 -0.3281 95.5684 -0.7656 ZM95.4746 -3.125 Q94.8965 -2.8906 93.7559 -2.7188 Q93.0996 -2.625 92.834 -2.5078 Q92.5684 -2.3906 92.4199 -2.1719 Q92.2715 -1.9531 92.2715 -1.6719 Q92.2715 -1.25 92.5918 -0.9688 Q92.9121 -0.6875 93.5215 -0.6875 Q94.1309 -0.6875 94.6074 -0.9531 Q95.084 -1.2188 95.3027 -1.6875 Q95.4746 -2.0469 95.4746 -2.7344 L95.4746 -3.125 ZM97.9766 0.5156 L99.0078 0.6719 Q99.0703 1.1406 99.3672 1.3594 Q99.7578 1.6562 100.4297 1.6562 Q101.1641 1.6562 101.5625 1.3594 Q101.9609 1.0625 102.1016 0.5469 Q102.1953 0.2188 102.1797 -0.8125 Q101.4922 0 100.4609 0 Q99.1797 0 98.4766 -0.9297 Q97.7734 -1.8594 97.7734 -3.1406 Q97.7734 -4.0312 98.0938 -4.7891 Q98.4141 -5.5469 99.0234 -5.9531 Q99.6328 -6.3594 100.4609 -6.3594 Q101.5703 -6.3594 102.2891 -5.4688 L102.2891 -6.2188 L103.2578 -6.2188 L103.2578 -0.8438 Q103.2578 0.6094 102.9609 1.2188 Q102.6641 1.8281 102.0234 2.1797 Q101.3828 2.5312 100.4453 2.5312 Q99.3359 2.5312 98.6484 2.0312 Q97.9609 1.5312 97.9766 0.5156 ZM98.8516 -3.2188 Q98.8516 -2 99.3359 -1.4375 Q99.8203 -0.875 100.5547 -0.875 Q101.2891 -0.875 101.7812 -1.4375 Q102.2734 -2 102.2734 -3.1875 Q102.2734 -4.3281 101.7656 -4.9062 Q101.2578 -5.4844 100.5391 -5.4844 Q99.8359 -5.4844 99.3438 -4.9141 Q98.8516 -4.3438 98.8516 -3.2188 ZM109.1035 -2 L110.1973 -1.875 Q109.9473 -0.9219 109.2441 -0.3906 Q108.541 0.1406 107.4629 0.1406 Q106.1035 0.1406 105.2988 -0.7031 Q104.4941 -1.5469 104.4941 -3.0625 Q104.4941 -4.625 105.3066 -5.4922 Q106.1191 -6.3594 107.4004 -6.3594 Q108.6504 -6.3594 109.4395 -5.5156 Q110.2285 -4.6719 110.2285 -3.125 Q110.2285 -3.0312 110.2285 -2.8438 L105.5879 -2.8438 Q105.6504 -1.8125 106.166 -1.2734 Q106.6816 -0.7344 107.4629 -0.7344 Q108.041 -0.7344 108.4551 -1.0391 Q108.8691 -1.3438 109.1035 -2 ZM105.6504 -3.7031 L109.1191 -3.7031 Q109.0566 -4.5 108.7285 -4.8906 Q108.2129 -5.5 107.416 -5.5 Q106.6816 -5.5 106.1895 -5.0156 Q105.6973 -4.5312 105.6504 -3.7031 ZM111.5117 0 L111.5117 -6.2188 L112.4648 -6.2188 L112.4648 -5.2812 Q112.8242 -5.9375 113.1289 -6.1484 Q113.4336 -6.3594 113.8086 -6.3594 Q114.3398 -6.3594 114.8867 -6.0312 L114.5273 -5.0469 Q114.1367 -5.2812 113.7617 -5.2812 Q113.4023 -5.2812 113.1289 -5.0703 Q112.8555 -4.8594 112.7461 -4.4844 Q112.5586 -3.9219 112.5586 -3.2656 L112.5586 0 L111.5117 0 Z"
         style="stroke:none; clip-path:url(#clipPath8);"
         id="path161"
         clip-path="url(#clipPath8)" />
    </g>
    <g
       transform="matrix(1.3333,0,0,1.3333,-364.421,-118.7876)"
       style="fill:rgb(255,255,204); text-rendering:geometricPrecision; font-family:sans-serif; shape-rendering:crispEdges; stroke:rgb(255,255,204); stroke-width:2;"
       id="g163">
      <rect
         x="628.6961"
         y="549.4524"
         width="150"
         style="clip-path:url(#clipPath2); stroke:none;"
         height="46.1875"
         id="rect165"
         clip-path="url(#clipPath2)" />
      <rect
         x="628.6961"
         y="549.4524"
         width="150"
         style="clip-path:url(#clipPath2); fill:none; stroke:black;"
         height="46.1875"
         id="rect167"
         clip-path="url(#clipPath2)" />
      <rect
         x="760.6961"
         y="555.4524"
         width="12"
         style="clip-path:url(#clipPath2); stroke:none; stroke-width:1;"
         height="14"
         id="rect169"
         clip-path="url(#clipPath2)" />
      <rect
         x="760.6961"
         y="555.4524"
         width="12"
         style="clip-path:url(#clipPath2); fill:none; stroke:black; stroke-width:1;"
         height="14"
         id="rect171"
         clip-path="url(#clipPath2)" />
      <rect
         x="758.6961"
         y="563.4524"
         width="6"
         style="clip-path:url(#clipPath2); stroke:none; stroke-width:1;"
         height="3"
         id="rect173"
         clip-path="url(#clipPath2)" />
      <rect
         x="758.6961"
         y="563.4524"
         width="6"
         style="clip-path:url(#clipPath2); fill:none; stroke:black; stroke-width:1;"
         height="3"
         id="rect175"
         clip-path="url(#clipPath2)" />
      <rect
         x="758.6961"
         y="558.4524"
         width="6"
         style="clip-path:url(#clipPath2); stroke:none; stroke-width:1;"
         height="3"
         id="rect177"
         clip-path="url(#clipPath2)" />
      <rect
         x="758.6961"
         y="558.4524"
         width="6"
         style="clip-path:url(#clipPath2); fill:none; stroke:black; stroke-width:1;"
         height="3"
         id="rect179"
         clip-path="url(#clipPath2)" />
    </g>
    <g
       style="font-family:sans-serif; text-rendering:optimizeLegibility;"
       transform="matrix(1.3333,0,0,1.3333,-364.421,-118.7876) translate(664.1961,566.4524)"
       id="g181">
      <path
         d="M0.9375 0 L0.9375 -8.5938 L4.75 -8.5938 Q5.9062 -8.5938 6.5 -8.3594 Q7.0938 -8.125 7.4531 -7.5391 Q7.8125 -6.9531 7.8125 -6.25 Q7.8125 -5.3281 7.2188 -4.7031 Q6.625 -4.0781 5.3906 -3.9062 Q5.8438 -3.6875 6.0781 -3.4844 Q6.5781 -3.0312 7.0156 -2.3438 L8.5156 0 L7.0781 0 L5.9531 -1.7812 Q5.4531 -2.5625 5.1328 -2.9688 Q4.8125 -3.375 4.5547 -3.5391 Q4.2969 -3.7031 4.0312 -3.7812 Q3.8438 -3.8125 3.4062 -3.8125 L2.0781 -3.8125 L2.0781 0 L0.9375 0 ZM2.0781 -4.7969 L4.5312 -4.7969 Q5.2969 -4.7969 5.7422 -4.9609 Q6.1875 -5.125 6.4141 -5.4766 Q6.6406 -5.8281 6.6406 -6.25 Q6.6406 -6.8594 6.1953 -7.25 Q5.75 -7.6406 4.7969 -7.6406 L2.0781 -7.6406 L2.0781 -4.7969 ZM13.7129 -2 L14.8066 -1.875 Q14.5566 -0.9219 13.8535 -0.3906 Q13.1504 0.1406 12.0723 0.1406 Q10.7129 0.1406 9.9082 -0.7031 Q9.1035 -1.5469 9.1035 -3.0625 Q9.1035 -4.625 9.916 -5.4922 Q10.7285 -6.3594 12.0098 -6.3594 Q13.2598 -6.3594 14.0488 -5.5156 Q14.8379 -4.6719 14.8379 -3.125 Q14.8379 -3.0312 14.8379 -2.8438 L10.1973 -2.8438 Q10.2598 -1.8125 10.7754 -1.2734 Q11.291 -0.7344 12.0723 -0.7344 Q12.6504 -0.7344 13.0645 -1.0391 Q13.4785 -1.3438 13.7129 -2 ZM10.2598 -3.7031 L13.7285 -3.7031 Q13.666 -4.5 13.3379 -4.8906 Q12.8223 -5.5 12.0254 -5.5 Q11.291 -5.5 10.7988 -5.0156 Q10.3066 -4.5312 10.2598 -3.7031 ZM16.1367 0 L16.1367 -6.2188 L17.0742 -6.2188 L17.0742 -5.3438 Q17.7617 -6.3594 19.0586 -6.3594 Q19.6211 -6.3594 20.0977 -6.1562 Q20.5742 -5.9531 20.8086 -5.625 Q21.043 -5.2969 21.1367 -4.8594 Q21.1836 -4.5625 21.1836 -3.8281 L21.1836 0 L20.1367 0 L20.1367 -3.7812 Q20.1367 -4.4375 20.0117 -4.75 Q19.8867 -5.0625 19.5742 -5.2578 Q19.2617 -5.4531 18.8398 -5.4531 Q18.168 -5.4531 17.6758 -5.0234 Q17.1836 -4.5938 17.1836 -3.4062 L17.1836 0 L16.1367 0 ZM25.1074 -0.9375 L25.2637 -0.0156 Q24.8105 0.0781 24.4668 0.0781 Q23.8887 0.0781 23.5762 -0.1016 Q23.2637 -0.2812 23.1309 -0.5781 Q22.998 -0.875 22.998 -1.8281 L22.998 -5.4062 L22.2324 -5.4062 L22.2324 -6.2188 L22.998 -6.2188 L22.998 -7.7656 L24.0449 -8.3906 L24.0449 -6.2188 L25.1074 -6.2188 L25.1074 -5.4062 L24.0449 -5.4062 L24.0449 -1.7656 Q24.0449 -1.3125 24.0996 -1.1875 Q24.1543 -1.0625 24.2793 -0.9844 Q24.4043 -0.9062 24.6387 -0.9062 Q24.8262 -0.9062 25.1074 -0.9375 ZM29.4785 0 L29.4785 -6.2188 L30.416 -6.2188 L30.416 -5.3438 Q30.7129 -5.8125 31.1973 -6.0859 Q31.6816 -6.3594 32.3066 -6.3594 Q32.9941 -6.3594 33.4395 -6.0781 Q33.8848 -5.7969 34.0566 -5.2812 Q34.8066 -6.3594 35.9785 -6.3594 Q36.916 -6.3594 37.4082 -5.8516 Q37.9004 -5.3438 37.9004 -4.2656 L37.9004 0 L36.8535 0 L36.8535 -3.9219 Q36.8535 -4.5469 36.752 -4.8281 Q36.6504 -5.1094 36.3848 -5.2812 Q36.1191 -5.4531 35.7441 -5.4531 Q35.0879 -5.4531 34.6582 -5.0156 Q34.2285 -4.5781 34.2285 -3.6094 L34.2285 0 L33.166 0 L33.166 -4.0469 Q33.166 -4.75 32.9082 -5.1016 Q32.6504 -5.4531 32.0723 -5.4531 Q31.6191 -5.4531 31.2441 -5.2188 Q30.8691 -4.9844 30.6973 -4.5312 Q30.5254 -4.0781 30.5254 -3.2344 L30.5254 0 L29.4785 0 ZM43.5371 -0.7656 Q42.9434 -0.2656 42.4043 -0.0625 Q41.8652 0.1406 41.2402 0.1406 Q40.209 0.1406 39.6621 -0.3594 Q39.1152 -0.8594 39.1152 -1.6406 Q39.1152 -2.0938 39.3184 -2.4766 Q39.5215 -2.8594 39.8652 -3.0859 Q40.209 -3.3125 40.6309 -3.4219 Q40.9277 -3.5156 41.5684 -3.5938 Q42.834 -3.7344 43.4434 -3.9531 Q43.4434 -4.1719 43.4434 -4.2188 Q43.4434 -4.875 43.1465 -5.1406 Q42.7402 -5.4844 41.9434 -5.4844 Q41.209 -5.4844 40.8496 -5.2266 Q40.4902 -4.9688 40.3184 -4.3125 L39.2871 -4.4531 Q39.4277 -5.1094 39.7559 -5.5156 Q40.084 -5.9219 40.6934 -6.1406 Q41.3027 -6.3594 42.0996 -6.3594 Q42.8965 -6.3594 43.3965 -6.1719 Q43.8965 -5.9844 44.1309 -5.7031 Q44.3652 -5.4219 44.459 -4.9844 Q44.5059 -4.7188 44.5059 -4.0156 L44.5059 -2.6094 Q44.5059 -1.1406 44.5762 -0.75 Q44.6465 -0.3594 44.8496 0 L43.7402 0 Q43.584 -0.3281 43.5371 -0.7656 ZM43.4434 -3.125 Q42.8652 -2.8906 41.7246 -2.7188 Q41.0684 -2.625 40.8027 -2.5078 Q40.5371 -2.3906 40.3887 -2.1719 Q40.2402 -1.9531 40.2402 -1.6719 Q40.2402 -1.25 40.5605 -0.9688 Q40.8809 -0.6875 41.4902 -0.6875 Q42.0996 -0.6875 42.5762 -0.9531 Q43.0527 -1.2188 43.2715 -1.6875 Q43.4434 -2.0469 43.4434 -2.7344 L43.4434 -3.125 ZM46.1484 0 L46.1484 -6.2188 L47.0859 -6.2188 L47.0859 -5.3438 Q47.7734 -6.3594 49.0703 -6.3594 Q49.6328 -6.3594 50.1094 -6.1562 Q50.5859 -5.9531 50.8203 -5.625 Q51.0547 -5.2969 51.1484 -4.8594 Q51.1953 -4.5625 51.1953 -3.8281 L51.1953 0 L50.1484 0 L50.1484 -3.7812 Q50.1484 -4.4375 50.0234 -4.75 Q49.8984 -5.0625 49.5859 -5.2578 Q49.2734 -5.4531 48.8516 -5.4531 Q48.1797 -5.4531 47.6875 -5.0234 Q47.1953 -4.5938 47.1953 -3.4062 L47.1953 0 L46.1484 0 ZM56.8848 -0.7656 Q56.291 -0.2656 55.752 -0.0625 Q55.2129 0.1406 54.5879 0.1406 Q53.5566 0.1406 53.0098 -0.3594 Q52.4629 -0.8594 52.4629 -1.6406 Q52.4629 -2.0938 52.666 -2.4766 Q52.8691 -2.8594 53.2129 -3.0859 Q53.5566 -3.3125 53.9785 -3.4219 Q54.2754 -3.5156 54.916 -3.5938 Q56.1816 -3.7344 56.791 -3.9531 Q56.791 -4.1719 56.791 -4.2188 Q56.791 -4.875 56.4941 -5.1406 Q56.0879 -5.4844 55.291 -5.4844 Q54.5566 -5.4844 54.1973 -5.2266 Q53.8379 -4.9688 53.666 -4.3125 L52.6348 -4.4531 Q52.7754 -5.1094 53.1035 -5.5156 Q53.4316 -5.9219 54.041 -6.1406 Q54.6504 -6.3594 55.4473 -6.3594 Q56.2441 -6.3594 56.7441 -6.1719 Q57.2441 -5.9844 57.4785 -5.7031 Q57.7129 -5.4219 57.8066 -4.9844 Q57.8535 -4.7188 57.8535 -4.0156 L57.8535 -2.6094 Q57.8535 -1.1406 57.9238 -0.75 Q57.9941 -0.3594 58.1973 0 L57.0879 0 Q56.9316 -0.3281 56.8848 -0.7656 ZM56.791 -3.125 Q56.2129 -2.8906 55.0723 -2.7188 Q54.416 -2.625 54.1504 -2.5078 Q53.8848 -2.3906 53.7363 -2.1719 Q53.5879 -1.9531 53.5879 -1.6719 Q53.5879 -1.25 53.9082 -0.9688 Q54.2285 -0.6875 54.8379 -0.6875 Q55.4473 -0.6875 55.9238 -0.9531 Q56.4004 -1.2188 56.6191 -1.6875 Q56.791 -2.0469 56.791 -2.7344 L56.791 -3.125 ZM59.293 0.5156 L60.3242 0.6719 Q60.3867 1.1406 60.6836 1.3594 Q61.0742 1.6562 61.7461 1.6562 Q62.4805 1.6562 62.8789 1.3594 Q63.2773 1.0625 63.418 0.5469 Q63.5117 0.2188 63.4961 -0.8125 Q62.8086 0 61.7773 0 Q60.4961 0 59.793 -0.9297 Q59.0898 -1.8594 59.0898 -3.1406 Q59.0898 -4.0312 59.4102 -4.7891 Q59.7305 -5.5469 60.3398 -5.9531 Q60.9492 -6.3594 61.7773 -6.3594 Q62.8867 -6.3594 63.6055 -5.4688 L63.6055 -6.2188 L64.5742 -6.2188 L64.5742 -0.8438 Q64.5742 0.6094 64.2773 1.2188 Q63.9805 1.8281 63.3398 2.1797 Q62.6992 2.5312 61.7617 2.5312 Q60.6523 2.5312 59.9648 2.0312 Q59.2773 1.5312 59.293 0.5156 ZM60.168 -3.2188 Q60.168 -2 60.6523 -1.4375 Q61.1367 -0.875 61.8711 -0.875 Q62.6055 -0.875 63.0977 -1.4375 Q63.5898 -2 63.5898 -3.1875 Q63.5898 -4.3281 63.082 -4.9062 Q62.5742 -5.4844 61.8555 -5.4844 Q61.1523 -5.4844 60.6602 -4.9141 Q60.168 -4.3438 60.168 -3.2188 ZM70.4199 -2 L71.5137 -1.875 Q71.2637 -0.9219 70.5605 -0.3906 Q69.8574 0.1406 68.7793 0.1406 Q67.4199 0.1406 66.6152 -0.7031 Q65.8105 -1.5469 65.8105 -3.0625 Q65.8105 -4.625 66.623 -5.4922 Q67.4355 -6.3594 68.7168 -6.3594 Q69.9668 -6.3594 70.7559 -5.5156 Q71.5449 -4.6719 71.5449 -3.125 Q71.5449 -3.0312 71.5449 -2.8438 L66.9043 -2.8438 Q66.9668 -1.8125 67.4824 -1.2734 Q67.998 -0.7344 68.7793 -0.7344 Q69.3574 -0.7344 69.7715 -1.0391 Q70.1855 -1.3438 70.4199 -2 ZM66.9668 -3.7031 L70.4355 -3.7031 Q70.373 -4.5 70.0449 -4.8906 Q69.5293 -5.5 68.7324 -5.5 Q67.998 -5.5 67.5059 -5.0156 Q67.0137 -4.5312 66.9668 -3.7031 ZM72.8281 0 L72.8281 -6.2188 L73.7812 -6.2188 L73.7812 -5.2812 Q74.1406 -5.9375 74.4453 -6.1484 Q74.75 -6.3594 75.125 -6.3594 Q75.6562 -6.3594 76.2031 -6.0312 L75.8438 -5.0469 Q75.4531 -5.2812 75.0781 -5.2812 Q74.7188 -5.2812 74.4453 -5.0703 Q74.1719 -4.8594 74.0625 -4.4844 Q73.875 -3.9219 73.875 -3.2656 L73.875 0 L72.8281 0 Z"
         style="stroke:none; clip-path:url(#clipPath9);"
         id="path183"
         clip-path="url(#clipPath9)" />
    </g>
    <g
       style="font-family:sans-serif; text-rendering:optimizeLegibility;"
       transform="matrix(1.3333,0,0,1.3333,-364.421,-118.7876)"
       id="g185">
      <line
         x1="846.9037"
         x2="653.9948"
         y1="189.9182"
         style="fill:none; clip-path:url(#clipPath2);"
         y2="281.8374"
         id="line187"
         clip-path="url(#clipPath2)" />
      <line
         x1="818.3323"
         x2="435.5165"
         y1="189.9182"
         style="fill:none; clip-path:url(#clipPath2);"
         y2="280.7505"
         id="line189"
         clip-path="url(#clipPath2)" />
      <line
         x1="940.0507"
         x2="938.9637"
         y1="190.2484"
         style="fill:none; clip-path:url(#clipPath2);"
         y2="553.6024"
         id="line191"
         clip-path="url(#clipPath2)" />
      <line
         x1="909.6159"
         x2="703.9948"
         y1="189.1614"
         style="fill:none; clip-path:url(#clipPath2);"
         y2="549.2287"
         id="line193"
         clip-path="url(#clipPath2)" />
      <line
         x1="885.7029"
         x2="487.0693"
         y1="190.2484"
         style="fill:none; clip-path:url(#clipPath2);"
         y2="546.854"
         id="line195"
         clip-path="url(#clipPath2)" />
    </g>
  </g>
  <path
     style="fill:none;fill-rule:evenodd;stroke:#000000;stroke-width:1px;stroke-linecap:butt;stroke-linejoin:miter;stroke-opacity:1"
     d="M 10.811441,466.43644 1095.0445,461.80297"
     id="path4327"
     inkscape:connector-curvature="0" />
  <path
     style="fill:#ffcc00;fill-rule:evenodd;stroke:#000000;stroke-width:1px;stroke-linecap:butt;stroke-linejoin:miter;stroke-opacity:1"
     d="M 10.811441,168.34958 1093.5,154.44915"
     id="path4329"
     inkscape:connector-curvature="0" />
  <path
     style="fill:#ffd42a;stroke:none;stroke-width:1px;stroke-linecap:butt;stroke-linejoin:miter;stroke-opacity:1"
     d="m 15.362356,591.89827 0,-123.37838 60.621292,-1.02314 c 33.341712,-0.56273 129.984962,-1.16542 214.762762,-1.33932 137.22054,-0.28146 153.82843,-0.0618 151.28965,2.00057 -11.84713,9.62426 -157.93218,141.24711 -157.93218,142.29713 0,0.73792 -31.24469,1.34059 -69.50212,1.34059 l -69.50212,0 0,33.20656 0,33.20657 99.61971,0 99.6197,0 0,-33.20657 0,-33.20656 -29.36986,0 -29.36989,0 81.98807,-73.36335 81.98808,-73.36335 103.37545,0 c 56.85648,0 103.37544,0.4338 103.37544,0.96399 0,0.5302 -18.59182,33.53571 -41.31515,73.34558 l -41.31515,72.38159 -50.5821,0.0178 -50.58209,0.0178 0,32.43432 0,32.43432 101.93644,0 101.93644,0 0,-32.43432 0,-32.43432 -49.42373,0 c -27.18305,0 -49.42373,-0.26496 -49.42373,-0.58879 0,-1.19635 80.82122,-142.33878 82.46755,-144.01752 1.21774,-1.2417 33.92377,-2.02094 114.069,-2.71776 l 112.36176,-0.97693 0,74.1505 0,74.1505 -66.41314,0 -66.41313,0 0,33.20656 0,33.20657 132.05402,0 132.05407,0 0,-33.20657 0,-33.20656 -64.09644,0 -64.0964,0 0,-74.1356 0,-74.13559 101.93644,0 101.9364,0 0,125.87606 0,125.87606 -539.0275,0 -539.027544,0 0,-123.37838 z"
     id="path4331"
     inkscape:connector-curvature="0" />
  <path
     style="fill:#ffe680;stroke:none;stroke-width:1px;stroke-linecap:butt;stroke-linejoin:miter;stroke-opacity:1"
     d="m 15.362356,317.72244 0,-147.34658 17.375529,-0.87358 c 9.556542,-0.48048 112.245925,-1.95557 228.198625,-3.27799 115.9527,-1.32242 239.66647,-2.74105 274.91949,-3.15252 35.25302,-0.41146 63.40138,-0.40864 62.55191,0.006 -0.84947,0.41491 -88.03288,21.27118 -193.74091,46.34726 l -192.19642,45.59287 -76.15898,0 -76.15899,0 0,33.20657 0,33.20657 106.56992,0 106.56991,0 0,-33.16528 0,-33.16528 -22.78125,-0.42741 -22.78125,-0.42741 194.48796,-46.14004 194.48797,-46.14004 44.13598,-0.65003 c 38.86234,-0.57237 43.6746,-0.38569 40.27474,1.56228 -2.12367,1.21677 -46.3627,22.44606 -98.30895,47.17619 l -94.44773,44.96388 -101.31657,0 -101.31658,0 0,33.20657 0,33.20657 142.09322,0 142.09322,0 0,-33.17862 0,-33.17861 -36.60057,-0.41408 -36.60057,-0.41407 97.99411,-46.58467 97.99411,-46.58468 37.0678,-0.99313 c 32.76731,-0.87791 36.79902,-0.7274 34.75106,1.29737 -1.27421,1.25977 -77.62165,69.64322 -169.66099,151.96322 L 447.5139,463.01676 291.28717,464.04204 c -85.92469,0.56391 -183.15879,1.02568 -216.075768,1.02615 l -59.849046,8.3e-4 0,-147.34658 z"
     id="path4333"
     inkscape:connector-curvature="0" />
  <path
     style="fill:#ffe680;stroke:none;stroke-width:1px;stroke-linecap:butt;stroke-linejoin:miter;stroke-opacity:1"
     d="m 454.8131,460.54063 c 1.67534,-1.64114 78.09033,-70.10073 169.81108,-152.13241 l 166.76501,-149.14852 19.73234,0 c 10.85279,0 19.73235,0.41783 19.73235,0.92852 0,0.51069 -38.58705,68.51046 -85.74901,151.11061 l -85.749,150.1821 -53.50759,1.02179 c -29.42918,0.562 -76.13667,1.02181 -103.79443,1.02181 -49.71795,0 -50.25237,-0.0338 -47.24075,-2.9839 z"
     id="path4335"
     inkscape:connector-curvature="0" />
  <path
     style="fill:#ffe680;stroke:none;stroke-width:1px;stroke-linecap:butt;stroke-linejoin:miter;stroke-opacity:1"
     d="m 664.83242,457.73269 c 1.37651,-2.33605 40.1709,-70.27437 86.20975,-150.97405 l 83.707,-146.7267 26.23933,-0.95762 c 14.43162,-0.52669 26.38602,-0.84334 26.56532,-0.70366 0.1793,0.13968 -0.10781,68.50893 -0.63799,151.93167 l -0.96397,151.67771 -111.8111,0 -111.81109,0 2.50275,-4.24735 z"
     id="path4337"
     inkscape:connector-curvature="0" />
  <path
     style="fill:#ffe680;stroke:none;stroke-width:1px;stroke-linecap:butt;stroke-linejoin:miter;stroke-opacity:1"
     d="m 889.54456,310.09645 0,-152.38124 29.8639,0 c 16.42515,0 62.29655,-0.4609 101.93644,-1.02422 l 72.0725,-1.02422 0,152.38439 0,152.38439 -56.76,0.003 c -31.2181,0.002 -77.08946,0.46107 -101.93646,1.02108 l -45.17638,1.01798 0,-152.38124 z"
     id="path4339"
     inkscape:connector-curvature="0" />
  <path
     style="fill:#fff6d5;stroke:none;stroke-width:1px;stroke-linecap:butt;stroke-linejoin:miter;stroke-opacity:1"
     d="m 15.362356,107.51923 0,-59.462922 25.928293,0 25.928294,0 7.278274,-7.389386 c 7.101509,-7.209923 7.278274,-7.622542 7.278274,-16.989407 l 0,-9.60002 505.820979,0 505.82093,0 0,69.324216 0,69.324219 -48.2653,0.91188 c -26.546,0.50154 -72.41737,1.27445 -101.93646,1.71758 l -53.67108,0.80569 0,-10.03438 0,-10.03437 30.88983,0 30.88983,0 0,-32.43433 0,-32.434319 -122.01483,0 -122.01483,0 0,32.305619 c 0,21.07436 0.56065,32.49249 1.61265,32.84316 0.88694,0.29565 -19.81397,5.58687 -46.00205,11.75827 l -47.61469,11.22072 -287.99425,3.79484 c -158.39684,2.08716 -293.38066,3.80407 -299.964055,3.81535 l -11.969809,0.0205 0,-59.46293 z"
     id="path4341"
     inkscape:connector-curvature="0" />
  <path
     style="fill:#fff6d5;stroke:none;stroke-width:1px;stroke-linecap:butt;stroke-linejoin:miter;stroke-opacity:1"
     d="m 632.38672,158.53227 c 0.84947,-0.41265 22.32033,-5.65367 47.71303,-11.64671 43.13398,-10.18024 47.1636,-10.86767 61.30773,-10.45872 l 15.13919,0.43773 -22.1633,10.49941 -22.1633,10.4994 -40.68892,0.70958 c -22.37891,0.39027 -39.9939,0.37196 -39.14443,-0.0407 z"
     id="path4343"
     inkscape:connector-curvature="0" />
  <path
     style="fill:#fff6d5;stroke:none;stroke-width:1px;stroke-linecap:butt;stroke-linejoin:miter;stroke-opacity:1"
     d="m 742.62533,146.73337 22.2026,-10.71752 23.67821,0.42436 23.6782,0.42436 -11.74573,10.42532 -11.74573,10.42532 -34.13507,-0.13216 -34.13507,-0.13216 22.20259,-10.71752 z"
     id="path4345"
     inkscape:connector-curvature="0" />
  <path
     style="fill:#a0a0a0;stroke:none;stroke-width:1px;stroke-linecap:butt;stroke-linejoin:miter;stroke-opacity:1"
     d="m 820.4498,156.60691 c 2.34772,-0.35501 5.82283,-0.34552 7.72246,0.0211 1.89963,0.3666 -0.0212,0.65707 -4.26859,0.64547 -4.24735,-0.0116 -5.80159,-0.31154 -3.45387,-0.66655 z"
     id="path4347"
     inkscape:connector-curvature="0" />
  <path
     style="fill:#fff6d5;stroke:none;stroke-width:1px;stroke-linecap:butt;stroke-linejoin:miter;stroke-opacity:1"
     d="m 795.33058,155.66112 c 1.2742,-1.22048 6.7483,-6.12274 12.16466,-10.89392 l 9.84793,-8.67487 13.853,0 13.853,0 -4.95088,8.88082 c -2.72298,4.88446 -5.39566,9.31642 -5.93928,9.84881 -0.54361,0.53239 -10.02367,1.43829 -21.06678,2.0131 -17.47998,0.90986 -19.77857,0.75794 -17.76165,-1.17394 z"
     id="path4349"
     inkscape:connector-curvature="0" />
  <path
     style="fill:#fff6d5;stroke:none;stroke-width:1px;stroke-linecap:butt;stroke-linejoin:miter;stroke-opacity:1"
     d="m 839.7796,151.15112 c 1.64983,-2.76078 4.28894,-7.27842 5.86469,-10.0392 l 2.86501,-5.01959 19.74538,0 19.74539,0 0,10.03919 0,10.03919 -25.61008,0 -25.61008,0 2.99969,-5.01959 z"
     id="path4351"
     inkscape:connector-curvature="0" />
</svg>
